<svg xmlns="http://www.w3.org/2000/svg" width="114" height="114" viewBox="0 0 114 114">
  <defs>
    <style>
      .cls-1 {
        fill: #fffcf3;
      }

      .cls-2 {
        fill: #f9c658;
      }
    </style>
  </defs>
  <g id="Group_94" data-name="Group 94" transform="translate(-1479 -1133)">
    <circle id="Ellipse_19" data-name="Ellipse 19" class="cls-1" cx="57" cy="57" r="57" transform="translate(1479 1133)"/>
    <g id="massage_1_" data-name="massage (1)" transform="translate(1505.164 1169.37)">
      <g id="Group_90" data-name="Group 90" transform="translate(16.172 29.183)">
        <g id="Group_89" data-name="Group 89">
          <path id="Path_146" data-name="Path 146" class="cls-2" d="M66.08,380.783a.912.912,0,0,0-.052-.169.894.894,0,0,0-.083-.156.866.866,0,0,0-.112-.137.9.9,0,0,0-.986-.2.961.961,0,0,0-.156.083.876.876,0,0,0-.25.25.891.891,0,0,0-.083.156.916.916,0,0,0-.052.169.912.912,0,0,0,0,.353.949.949,0,0,0,.052.17.909.909,0,0,0,.083.155.924.924,0,0,0,.112.138.907.907,0,0,0,.294.2.85.85,0,0,0,.169.052.9.9,0,0,0,.817-.247.866.866,0,0,0,.112-.138.917.917,0,0,0,.083-.155.942.942,0,0,0,.052-.17.87.87,0,0,0,0-.352Z" transform="translate(-64.29 -380.056)"/>
        </g>
      </g>
      <g id="Group_92" data-name="Group 92" transform="translate(12.17)">
        <g id="Group_91" data-name="Group 91" transform="translate(0)">
          <path id="Path_147" data-name="Path 147" class="cls-2" d="M48.711,32.753H44.17l1.257-.771a.9.9,0,0,0,.185-.151,8.22,8.22,0,0,0,3.111-4.114,6.235,6.235,0,0,0-.717-5.246c-2.147-3.5-6.081-4.195-10.022-1.775l-.018.011-6.688,4.325a2.651,2.651,0,0,0-.355-.172l-5-1.974-3.875-7.227a2.862,2.862,0,0,0-.272-.414,5.019,5.019,0,0,0,3.81-4.864V7.473a.9.9,0,0,0,.07-.409C25.382,2.839,22.658,0,18.878,0,14.8,0,12.17,2.966,12.17,7.557V17.871a.9.9,0,0,0,.512.814V30.331c0,.008,0,.015,0,.023V38.41a.9.9,0,0,0,.9.9H48.711a.9.9,0,0,0,.9-.9V33.658A.9.9,0,0,0,48.711,32.753ZM38.938,22.231c1.171-.717,5.13-2.717,7.526,1.185,1.552,2.528.459,4.876-1.282,6.439l-2.9-4.716q-.024-.038-.051-.074a.9.9,0,0,0-1.193-.224l-2.8,1.719-.2.127-.082.053-.11.071-.1.066-.082.055-.109.075-.063.044-.115.082-.045.033-.121.09-.029.022-.127.1-.012.009A4.377,4.377,0,0,0,35.24,30.1l-1.211-1.618L32.516,26.46h0l-.038-.051Zm4.772,8.683-2.029,1.246a3.232,3.232,0,0,1-4.7-1.55,2.445,2.445,0,0,1,.42-1.048A6.257,6.257,0,0,1,39.19,28.1l2.029-1.246ZM24.485,24.031a.9.9,0,0,0,.464.414l5.308,2.1a.859.859,0,0,1,.319.221c.013.014.025.029.037.044l.021.026.02.029a.889.889,0,0,1,.094.178l0,.009a.9.9,0,0,1,.055.33c0,.01,0,.02,0,.03s0,.047-.007.07,0,.02,0,.031-.006.026-.009.039-.008.038-.013.057a.864.864,0,0,1-.354.475q-.036.024-.075.045a.865.865,0,0,1-.587.081q-.043-.009-.085-.023l-.311-.1L24.55,26.542c-.064-.022-.127-.046-.189-.072l-.043-.018c-.054-.023-.108-.048-.161-.074l-.022-.011a3.5,3.5,0,0,1-1.045-.8l-.012-.012a3.5,3.5,0,0,1-.465-.667l-3.28-6.118h1.981c.026,0,.051,0,.077,0l.024,0,.051-.007.028-.005.048-.011.027-.007.05-.017.016-.005Zm-4.6,6.959H28.96l.8,1.763H14.492V27.079h7.541a5.264,5.264,0,0,0,.9.691l.006,0q.111.067.226.129l.034.018q.1.053.2.1l.053.025q.1.045.2.085l.061.026q.121.049.245.091l.01,0,.017.006,2.874.921H19.889a.9.9,0,1,0,0,1.808ZM23.777,10.38a3.206,3.206,0,0,1-3.2,3.2,3.155,3.155,0,0,1-.333-.018l-.01-.056q-.021-.119-.04-.242c0-.03-.009-.06-.014-.09q-.022-.148-.041-.3l-.006-.048q-.022-.179-.041-.364v-.009q-.019-.19-.034-.385v0q-.015-.2-.027-.4a.011.011,0,0,0,0,0q-.012-.2-.019-.415v0Q20,11.036,20,10.82v0q0-.216,0-.438V8.026h3.784V10.38Zm-9.8-2.823c0-1.348.353-5.748,4.9-5.748,2.978,0,4.423,2.2,4.85,4.409H19.089a.9.9,0,0,0-.9.9V10.38a13.421,13.421,0,0,0,1.295,6.587h-5.5Zm.512,11.218h2.79l3.483,6.5H14.491Zm0,18.731V34.562H30.577l.3.66a3.679,3.679,0,0,0,2.579,2.008l.048.01,1.411.266H14.492Zm27.245-.765a.562.562,0,0,1-.47.121l-7.4-1.395a2.005,2.005,0,0,1-1.247-.819,1.437,1.437,0,0,1-.093-.173l-.539-1.191h0l-1.5-3.307.024-.006.06-.013.033-.009.039-.01.032-.009.04-.012.048-.015.069-.023.03-.011.046-.018.082-.034.035-.015.023-.011c.046-.021.092-.043.137-.067s.086-.047.128-.072l.041-.026.082-.052.047-.032.072-.052.047-.036.068-.055.044-.037.067-.062.038-.036c.026-.026.051-.052.076-.079l.023-.024q.048-.053.094-.108l.021-.027c.023-.028.045-.057.066-.086l.008-.011.416.557,1.913,4.223a.9.9,0,0,0,.615.507l6.455,1.53a.57.57,0,0,1,.232.994Zm6.07.765H43.425l.015-.028c.016-.028.031-.056.046-.085l.024-.047c.014-.029.028-.059.041-.089l.019-.044c.016-.038.03-.076.044-.115l.008-.021c.016-.046.03-.092.043-.138,0-.014.007-.028.01-.041.009-.033.017-.067.024-.1,0-.017.007-.034.01-.052s.011-.063.016-.094.005-.035.007-.053c0-.033.007-.067.01-.1,0-.016,0-.031,0-.047,0-.049,0-.1,0-.148s0-.123-.008-.184c0-.012,0-.025,0-.037-.005-.059-.013-.117-.022-.175,0-.011,0-.021-.006-.031q-.015-.082-.035-.161l0-.02c-.015-.057-.032-.112-.051-.167l-.012-.035c-.02-.054-.041-.108-.064-.16l-.009-.02q-.033-.073-.072-.144l-.014-.026q-.041-.074-.088-.145l-.02-.029c-.033-.048-.066-.1-.1-.141l0,0c-.036-.045-.073-.088-.112-.131l-.023-.025c-.034-.036-.069-.071-.105-.105h4.809Z" transform="translate(-12.17)"/>
        </g>
      </g>
    </g>
  </g>
</svg>
