<svg xmlns="http://www.w3.org/2000/svg" width="114" height="114" viewBox="0 0 114 114">
  <defs>
    <style>
      .cls-1 {
        fill: #fffcf3;
      }

      .cls-2 {
        fill: #f9c658;
      }
    </style>
  </defs>
  <g id="Group_79" data-name="Group 79" transform="translate(-330 -1133)">
    <circle id="Ellipse_19" data-name="Ellipse 19" class="cls-1" cx="57" cy="57" r="57" transform="translate(330 1133)"/>
    <g id="facial-mask" transform="translate(320.658 1164.999)">
      <g id="Group_40" data-name="Group 40" transform="translate(46.342 0.001)">
        <g id="Group_39" data-name="Group 39" transform="translate(0 0)">
          <path id="Path_122" data-name="Path 122" class="cls-2" d="M87.128,13.608a8,8,0,0,0-3.59-5.01L72.648,1.826c-.172-.134-.349-.262-.533-.383a8.685,8.685,0,0,0-9.16-.265L52.434,7.252a12.175,12.175,0,0,0-4.456,16.631l1.66,2.875c.011.019.024.037.036.056v1.764A22.079,22.079,0,0,0,66.437,50.034a.977.977,0,0,0,.471,0l.018,0A22.078,22.078,0,0,0,83.7,28.572V23.6l2.429-3.906A8,8,0,0,0,87.128,13.608ZM81.74,28.572a20.124,20.124,0,0,1-15.066,19.5,20.127,20.127,0,0,1-15.045-19.5v-1.84l1.3-.751a6.663,6.663,0,1,0,2.293-3.578c-.018.009-.036.018-.054.028l-4.326,2.5-1.171-2.028a10.22,10.22,0,0,1,3.741-13.96L63.933,2.872a6.74,6.74,0,0,1,7.108.205,6.093,6.093,0,0,1-.3,10.368L68.86,14.532l-.006,0L66.142,16.1a.978.978,0,1,0,.978,1.693l2.2-1.272L81.74,24.245ZM54.688,27.59a4.693,4.693,0,1,1,4.693,4.693A4.7,4.7,0,0,1,54.688,27.59Zm29.776-8.933-2.233,3.59L71.242,15.414l.477-.276A8,8,0,0,0,75.74,8.4a8.1,8.1,0,0,0-.334-2.558l7.1,4.415A6.1,6.1,0,0,1,84.464,18.657Z" transform="translate(-46.342 -0.001)"/>
        </g>
      </g>
      <g id="Group_42" data-name="Group 42" transform="translate(62.335 17.885)">
        <g id="Group_41" data-name="Group 41">
          <path id="Path_123" data-name="Path 123" class="cls-2" d="M211.572,183.2a.977.977,0,1,0,.286.691A.985.985,0,0,0,211.572,183.2Z" transform="translate(-209.903 -182.91)"/>
        </g>
      </g>
      <g id="Group_44" data-name="Group 44" transform="translate(60.974 36.865)">
        <g id="Group_43" data-name="Group 43">
          <path id="Path_124" data-name="Path 124" class="cls-2" d="M207.379,379.879a1.126,1.126,0,0,0-.725-.962,3.036,3.036,0,0,1-1.247-.9,2.75,2.75,0,0,0-3.722-.484,2.749,2.749,0,0,0-3.722.484,3.031,3.031,0,0,1-1.239.895l-.01,0a1.136,1.136,0,0,0-.17,2.037,4.529,4.529,0,0,1,.64.611,5.947,5.947,0,0,0,4.5,2.307h.012a5.947,5.947,0,0,0,4.5-2.307,4.538,4.538,0,0,1,.639-.61A1.132,1.132,0,0,0,207.379,379.879Zm-2.614.344a3.646,3.646,0,0,1-6.159,0l-.076-.081a4.992,4.992,0,0,0,.941-.878.8.8,0,0,1,1.188-.043l.319.334a.977.977,0,0,0,.707.3h0a.977.977,0,0,0,.707-.3l.319-.334a.8.8,0,0,1,1.188.043,4.983,4.983,0,0,0,.942.878Z" transform="translate(-195.987 -377.02)"/>
        </g>
      </g>
      <g id="Group_46" data-name="Group 46" transform="translate(67.316 20.942)">
        <g id="Group_45" data-name="Group 45" transform="translate(0)">
          <path id="Path_125" data-name="Path 125" class="cls-2" d="M267.494,214.174a6.648,6.648,0,1,0,6.648,6.648A6.655,6.655,0,0,0,267.494,214.174Zm0,11.34a4.693,4.693,0,1,1,4.693-4.693A4.7,4.7,0,0,1,267.494,225.514Z" transform="translate(-260.846 -214.174)"/>
        </g>
      </g>
      <g id="Group_48" data-name="Group 48" transform="translate(72.986 23.961)">
        <g id="Group_47" data-name="Group 47" transform="translate(0)">
          <path id="Path_126" data-name="Path 126" class="cls-2" d="M319.815,245.047a.978.978,0,0,0-.978.978v.309a.978.978,0,1,0,1.955,0v-.309A.978.978,0,0,0,319.815,245.047Z" transform="translate(-318.837 -245.047)"/>
        </g>
      </g>
      <g id="Group_50" data-name="Group 50" transform="translate(72.986 28.955)">
        <g id="Group_49" data-name="Group 49" transform="translate(0)">
          <path id="Path_127" data-name="Path 127" class="cls-2" d="M319.815,296.12a.978.978,0,0,0-.978.978v.309a.978.978,0,1,0,1.955,0V297.1A.978.978,0,0,0,319.815,296.12Z" transform="translate(-318.837 -296.12)"/>
        </g>
      </g>
      <g id="Group_52" data-name="Group 52" transform="translate(75.328 26.612)">
        <g id="Group_51" data-name="Group 51" transform="translate(0)">
          <path id="Path_128" data-name="Path 128" class="cls-2" d="M344.079,272.164h-.309a.978.978,0,0,0,0,1.955h.309a.978.978,0,1,0,0-1.955Z" transform="translate(-342.792 -272.164)"/>
        </g>
      </g>
      <g id="Group_54" data-name="Group 54" transform="translate(70.335 26.612)">
        <g id="Group_53" data-name="Group 53">
          <path id="Path_129" data-name="Path 129" class="cls-2" d="M293.007,272.164H292.7a.978.978,0,0,0,0,1.955h.309a.978.978,0,1,0,0-1.955Z" transform="translate(-291.72 -272.164)"/>
        </g>
      </g>
      <g id="Group_56" data-name="Group 56" transform="translate(58.403 23.961)">
        <g id="Group_55" data-name="Group 55">
          <path id="Path_130" data-name="Path 130" class="cls-2" d="M170.672,245.048a.978.978,0,0,0-.978.978v.309a.978.978,0,0,0,1.955,0v-.309A.978.978,0,0,0,170.672,245.048Z" transform="translate(-169.694 -245.048)"/>
        </g>
      </g>
      <g id="Group_58" data-name="Group 58" transform="translate(58.403 28.955)">
        <g id="Group_57" data-name="Group 57">
          <path id="Path_131" data-name="Path 131" class="cls-2" d="M170.672,296.12a.978.978,0,0,0-.978.978v.309a.978.978,0,1,0,1.955,0V297.1A.978.978,0,0,0,170.672,296.12Z" transform="translate(-169.694 -296.12)"/>
        </g>
      </g>
      <g id="Group_60" data-name="Group 60" transform="translate(60.745 26.612)">
        <g id="Group_59" data-name="Group 59" transform="translate(0)">
          <path id="Path_132" data-name="Path 132" class="cls-2" d="M194.937,272.164h-.309a.978.978,0,1,0,0,1.955h.309a.978.978,0,1,0,0-1.955Z" transform="translate(-193.65 -272.164)"/>
        </g>
      </g>
      <g id="Group_62" data-name="Group 62" transform="translate(55.752 26.612)">
        <g id="Group_61" data-name="Group 61" transform="translate(0)">
          <path id="Path_133" data-name="Path 133" class="cls-2" d="M143.865,272.164h-.309a.978.978,0,1,0,0,1.955h.309a.978.978,0,1,0,0-1.955Z" transform="translate(-142.578 -272.164)"/>
        </g>
      </g>
      <g id="Group_64" data-name="Group 64" transform="translate(52.733 7.246)">
        <g id="Group_63" data-name="Group 63">
          <path id="Path_134" data-name="Path 134" class="cls-2" d="M120.972,74.59a.978.978,0,0,0-1.335-.358l-7.445,4.3a.978.978,0,1,0,.978,1.693l7.445-4.3A.978.978,0,0,0,120.972,74.59Z" transform="translate(-111.702 -74.101)"/>
        </g>
      </g>
      <g id="Group_66" data-name="Group 66" transform="translate(63.253 5.47)">
        <g id="Group_65" data-name="Group 65">
          <path id="Path_135" data-name="Path 135" class="cls-2" d="M220.97,56.227a.978.978,0,1,0,.287.692A.983.983,0,0,0,220.97,56.227Z" transform="translate(-219.301 -55.941)"/>
        </g>
      </g>
    </g>
  </g>
</svg>
