<svg xmlns="http://www.w3.org/2000/svg" width="114" height="114" viewBox="0 0 114 114">
  <defs>
    <style>
      .cls-1 {
        fill: #fffcf3;
      }

      .cls-2 {
        fill: #f9c658;
      }
    </style>
  </defs>
  <g id="Group_80" data-name="Group 80" transform="translate(-713 -1133)">
    <circle id="Ellipse_19" data-name="Ellipse 19" class="cls-1" cx="57" cy="57" r="57" transform="translate(713 1133)"/>
    <g id="massage" transform="translate(749.082 1150.831)">
      <g id="Group_68" data-name="Group 68" transform="translate(0 31.095)">
        <g id="Group_67" data-name="Group 67" transform="translate(0 0)">
          <path id="Path_136" data-name="Path 136" class="cls-2" d="M39.978,178.855a6.513,6.513,0,0,0-4.141-11.543H30.1c.024-.268.037-.54.037-.814a8.959,8.959,0,0,0-17.918,0c0,.275.013.546.037.814H6.516a6.513,6.513,0,0,0-4.141,11.543,2.366,2.366,0,0,0-1.56,2.222v1.792a2.365,2.365,0,0,0,2.362,2.362h36a2.365,2.365,0,0,0,2.362-2.362v-1.792A2.366,2.366,0,0,0,39.978,178.855ZM29.5,169.814l.021-.052q.074-.187.139-.379l.005-.014c.019-.056.037-.113.055-.17s.029-.093.043-.14.025-.077.036-.117h6.039a4.887,4.887,0,1,1,0,9.774H25.656a2.036,2.036,0,1,1,0-4.072H35.837a.814.814,0,0,0,0-1.629H27.319q.3-.279.565-.583l.025-.028q.1-.116.2-.236l.056-.07q.069-.086.137-.175l.1-.13h4.18a.814.814,0,1,0,0-1.629H29.351Q29.429,169.991,29.5,169.814Zm-8.323-10.646a7.332,7.332,0,0,1,7.167,8.87q-.017.082-.037.162t-.046.181c-.012.044-.023.088-.036.131s-.031.107-.048.16l-.006.017q-.051.163-.11.324l0,.006a7.319,7.319,0,0,1-.895,1.7l-.018.025q-.066.092-.134.181l-.077.1-.082.1c-.045.056-.091.111-.139.165l-.05.056c-.054.061-.109.122-.166.182l-.012.013a7.354,7.354,0,0,1-4.656,2.254l-.019,0q-.149.013-.3.02h-.037c-.1,0-.2.007-.3.007s-.2,0-.3-.007h-.037q-.15-.007-.3-.02l-.019,0a7.353,7.353,0,0,1-4.656-2.254l-.012-.013c-.056-.059-.111-.12-.166-.182l-.05-.056c-.047-.054-.093-.11-.139-.165l-.082-.1-.077-.1c-.045-.06-.09-.12-.134-.181l-.018-.025a7.321,7.321,0,0,1-.895-1.7l0-.006q-.059-.16-.11-.324l-.006-.017q-.025-.08-.048-.16c-.012-.044-.024-.087-.036-.131q-.024-.09-.046-.181t-.037-.162a7.331,7.331,0,0,1,7.167-8.87ZM20.129,175.4q.145.017.291.029h.014q.171.014.344.022l.056,0c.114,0,.227.007.342.007s.229,0,.342-.007l.056,0q.173-.008.344-.022h.014q.146-.012.291-.029a3.659,3.659,0,0,0,.387,3.319H19.742a3.659,3.659,0,0,0,.387-3.319Zm-18.5-1.567a4.892,4.892,0,0,1,4.887-4.887h6.039c.011.039.024.078.036.117s.028.094.043.14.036.113.055.17l.005.014q.065.192.139.379l.021.052q.071.177.148.35H9.774a.814.814,0,1,0,0,1.629h4.179l.1.13q.067.088.137.175l.056.07q.1.12.2.236l.025.028q.269.3.565.583H6.516a.814.814,0,0,0,0,1.629H16.7a2.036,2.036,0,1,1,0,4.072H6.516A4.892,4.892,0,0,1,1.629,173.828Zm38.28,9.041a.734.734,0,0,1-.733.733h-36a.734.734,0,0,1-.733-.733v-1.792a.734.734,0,0,1,.733-.733h36a.734.734,0,0,1,.733.733Z" transform="translate(0 -157.539)"/>
        </g>
      </g>
      <g id="Group_70" data-name="Group 70" transform="translate(9.915 19.692)">
        <g id="Group_69" data-name="Group 69" transform="translate(0 0)">
          <path id="Path_137" data-name="Path 137" class="cls-2" d="M121.924,26.447a1.491,1.491,0,0,1,0-2.106,3.122,3.122,0,0,0,0-4.41.815.815,0,0,0-1.152,1.152,1.491,1.491,0,0,1,0,2.106,3.122,3.122,0,0,0,0,4.41,1.491,1.491,0,0,1,0,2.106,3.122,3.122,0,0,0,0,4.41.814.814,0,0,0,1.152-1.152,1.491,1.491,0,0,1,0-2.106A3.122,3.122,0,0,0,121.924,26.447Z" transform="translate(-119.86 -19.693)"/>
        </g>
      </g>
      <g id="Group_72" data-name="Group 72" transform="translate(29.462 19.692)">
        <g id="Group_71" data-name="Group 71" transform="translate(0 0)">
          <path id="Path_138" data-name="Path 138" class="cls-2" d="M358.232,26.447a1.491,1.491,0,0,1,0-2.106,3.122,3.122,0,0,0,0-4.41.814.814,0,0,0-1.152,1.152,1.491,1.491,0,0,1,0,2.106,3.122,3.122,0,0,0,0,4.41,1.491,1.491,0,0,1,0,2.106,3.122,3.122,0,0,0,0,4.41.814.814,0,1,0,1.152-1.152,1.491,1.491,0,0,1,0-2.106A3.122,3.122,0,0,0,358.232,26.447Z" transform="translate(-356.168 -19.693)"/>
        </g>
      </g>
      <g id="Group_74" data-name="Group 74" transform="translate(19.689 19.692)">
        <g id="Group_73" data-name="Group 73">
          <path id="Path_139" data-name="Path 139" class="cls-2" d="M239.644,25.393a1.479,1.479,0,0,1,.436-1.053,3.122,3.122,0,0,0,0-4.41.814.814,0,1,0-1.152,1.152,1.489,1.489,0,0,1,0,2.106,3.122,3.122,0,0,0,0,4.41.814.814,0,0,0,1.152-1.152A1.479,1.479,0,0,1,239.644,25.393Z" transform="translate(-238.016 -19.692)"/>
        </g>
      </g>
      <g id="Group_76" data-name="Group 76" transform="translate(34.208 43.719)">
        <g id="Group_75" data-name="Group 75">
          <path id="Path_140" data-name="Path 140" class="cls-2" d="M414.929,310.393a.814.814,0,1,0,.239.576A.82.82,0,0,0,414.929,310.393Z" transform="translate(-413.539 -310.154)"/>
        </g>
      </g>
      <g id="Group_78" data-name="Group 78" transform="translate(6.516 43.719)">
        <g id="Group_77" data-name="Group 77">
          <path id="Path_141" data-name="Path 141" class="cls-2" d="M80.16,310.393a.814.814,0,1,0,.239.576A.82.82,0,0,0,80.16,310.393Z" transform="translate(-78.77 -310.154)"/>
        </g>
      </g>
    </g>
  </g>
</svg>
