<svg xmlns="http://www.w3.org/2000/svg" width="114" height="114" viewBox="0 0 114 114">
  <defs>
    <style>
      .cls-1 {
        fill: #fffcf3;
      }

      .cls-2 {
        fill: #f9c658;
      }
    </style>
  </defs>
  <g id="Group_109" data-name="Group 109" transform="translate(-330 -1478)">
    <circle id="Ellipse_19" data-name="Ellipse 19" class="cls-1" cx="57" cy="57" r="57" transform="translate(330 1478)"/>
    <g id="make-up" transform="translate(356.196 1513.747)">
      <g id="Group_96" data-name="Group 96" transform="translate(28.673 26.365)">
        <g id="Group_95" data-name="Group 95">
          <path id="Path_148" data-name="Path 148" class="cls-2" d="M237.911,293.006a.9.9,0,0,0-1.2.426l-.149.314a.9.9,0,1,0,1.625.774l.149-.314A.9.9,0,0,0,237.911,293.006Z" transform="translate(-236.475 -292.918)"/>
        </g>
      </g>
      <g id="Group_98" data-name="Group 98" transform="translate(14.51 20.974)">
        <g id="Group_97" data-name="Group 97">
          <path id="Path_149" data-name="Path 149" class="cls-2" d="M84.636,233.289a.9.9,0,0,0-1.273,0,1.915,1.915,0,0,1-2.706,0,.9.9,0,0,0-1.273,1.273,3.717,3.717,0,0,0,5.251,0A.9.9,0,0,0,84.636,233.289Z" transform="translate(-79.122 -233.025)"/>
        </g>
      </g>
      <g id="Group_100" data-name="Group 100" transform="translate(8.12 0)">
        <g id="Group_99" data-name="Group 99" transform="translate(0)">
          <path id="Path_150" data-name="Path 150" class="cls-2" d="M50.356,2.391a8.166,8.166,0,0,0-11.5-.03A21.655,21.655,0,0,0,35.691,1.1,23.219,23.219,0,0,0,28.8,0c-4.881,0-9.139,2.051-11.114,5.347A8.3,8.3,0,0,0,17.033,6.7c-.93.886-5.128,5.224-5.128,11.376A8.633,8.633,0,0,1,8.76,25.221a1.655,1.655,0,0,0,.2,2.75c.443.249.94.488,1.422.719.426.2,1.03.494,1.325.683v1.6a1.685,1.685,0,0,1-.124.637l-.223.549a2.322,2.322,0,0,0,.292,2.261v.2a1.96,1.96,0,0,0,.685,1.491v1.056a4.111,4.111,0,0,0,4.106,4.106H19.1a.9.9,0,1,0,0-1.8H16.446a2.309,2.309,0,0,1-2.306-2.306V35.614a.9.9,0,0,0-.547-.828l-.039-.017a.164.164,0,0,1-.1-.151v-.508a.9.9,0,0,0-.193-.556l-.159-.2a.518.518,0,0,1-.073-.515l.223-.549a3.476,3.476,0,0,0,.257-1.314V29.06c0-.867-.883-1.291-2.347-1.993-.384-.184-.779-.374-1.129-.561a10.441,10.441,0,0,0,3.67-8.432,13.916,13.916,0,0,1,2.812-8.011,11.427,11.427,0,0,0,1.423,4.849c2.309,4.319,6.331,6.13,9.562,7.584,3.074,1.384,4.815,2.255,4.828,4.066a3.9,3.9,0,0,1-.909,2.908,2.508,2.508,0,0,1-1.654.675A.884.884,0,0,0,29,30.5a.9.9,0,0,0-.127.843A13.025,13.025,0,0,0,31,34.983a8.661,8.661,0,0,0,6.693,3.389l2.418,7.089a.9.9,0,1,0,1.7-.581L39.428,37.9a18.535,18.535,0,0,0,9.149-10.837,21.823,21.823,0,0,0,.243-11.931,8.159,8.159,0,0,0,1.535-12.74ZM46.864,26.514a16.849,16.849,0,0,1-8.773,10.053,6.784,6.784,0,0,1-5.677-2.691,11.471,11.471,0,0,1-1.4-2.134,4.128,4.128,0,0,0,1.634-.955,5.563,5.563,0,0,0,1.481-4.238c-.023-3.053-2.873-4.335-5.889-5.693-3.138-1.412-6.694-3.013-8.714-6.791a8.128,8.128,0,0,1-.881-6.536l.008-.023a6.567,6.567,0,0,1,.576-1.232C20.882,3.515,24.554,1.8,28.811,1.8h.026a21.553,21.553,0,0,1,6.316,1.013,16.548,16.548,0,0,1,10.059,7.971A20.573,20.573,0,0,1,46.864,26.514Zm1.419-13.181a22.568,22.568,0,0,0-1.487-3.4,17.687,17.687,0,0,0-6.287-6.644,6.357,6.357,0,1,1,7.775,10.048Z" transform="translate(-8.12 0)"/>
        </g>
      </g>
      <g id="Group_102" data-name="Group 102" transform="translate(17.805 28.623)">
        <g id="Group_101" data-name="Group 101">
          <path id="Path_151" data-name="Path 151" class="cls-2" d="M129.122,331.533,126.3,326.65l-.1-3.334a5.463,5.463,0,0,0-5.024-5.3,4.992,4.992,0,0,0-4.892,2.825l-.044.094a5.489,5.489,0,0,0,1.956,6.923l2.806,1.829,3.066,5.31a.9.9,0,0,0,1.558-.9l-2.724-4.717,1.085-.627,1.085-.626,2.483,4.3a.9.9,0,0,0,1.559-.9ZM121.71,328l-2.524-1.645a3.683,3.683,0,0,1-1.312-4.646l.044-.094a3.186,3.186,0,0,1,2.867-1.812q.126,0,.253.01a3.665,3.665,0,0,1,3.371,3.553l.086,3.025Z" transform="translate(-115.724 -318.005)"/>
        </g>
      </g>
      <g id="Group_104" data-name="Group 104" transform="translate(31.014 44.284)">
        <g id="Group_103" data-name="Group 103">
          <path id="Path_152" data-name="Path 152" class="cls-2" d="M264.026,492.27a.9.9,0,1,0,.264.636A.906.906,0,0,0,264.026,492.27Z" transform="translate(-262.49 -492.006)"/>
        </g>
      </g>
      <g id="Group_106" data-name="Group 106" transform="translate(20.503 4.729)">
        <g id="Group_105" data-name="Group 105">
          <path id="Path_153" data-name="Path 153" class="cls-2" d="M150.381,53.08a.9.9,0,0,0-1.181-.474,5.236,5.236,0,0,0-2.688,7.769.9.9,0,0,0,1.587-.849,3.8,3.8,0,0,1-.424-3.1,3.855,3.855,0,0,1,2.232-2.162A.9.9,0,0,0,150.381,53.08Z" transform="translate(-145.708 -52.534)"/>
        </g>
      </g>
      <g id="Group_108" data-name="Group 108" transform="translate(26.426 4.141)">
        <g id="Group_107" data-name="Group 107">
          <path id="Path_154" data-name="Path 154" class="cls-2" d="M212.461,46h-.05a.9.9,0,0,0,.005,1.8h.045a.9.9,0,1,0,0-1.8Z" transform="translate(-211.516 -46.003)"/>
        </g>
      </g>
    </g>
  </g>
</svg>
