<svg xmlns="http://www.w3.org/2000/svg" width="114" height="114" viewBox="0 0 114 114">
  <defs>
    <style>
      .cls-1 {
        fill: #fffcf3;
      }

      .cls-2 {
        fill: #f9c658;
      }
    </style>
  </defs>
  <g id="Group_112" data-name="Group 112" transform="translate(-713 -1478)">
    <circle id="Ellipse_19" data-name="Ellipse 19" class="cls-1" cx="57" cy="57" r="57" transform="translate(713 1478)"/>
    <g id="footprint" transform="translate(689.893 1511.844)">
      <g id="Group_111" data-name="Group 111" transform="translate(60.223)">
        <g id="Group_110" data-name="Group 110">
          <path id="Path_155" data-name="Path 155" class="cls-2" d="M144.429,131.761c2.227-3.855,2.671-7.73,1.217-10.634-.937-1.87-3.1-4.223-8.1-4.819a12.535,12.535,0,0,0-1.818-.129,17.333,17.333,0,0,0-9.735,3.233,12.808,12.808,0,0,0-5.633,8.477c-.609,4.307,1.938,8.323,3.984,11.549a59.167,59.167,0,0,0,6.334,8.365c2.814,3,5.542,4.46,8.34,4.46h0a8.588,8.588,0,0,0,2.687-.444,7.117,7.117,0,0,0,4.894-6.913,12.125,12.125,0,0,0-1.711-5.881C143.681,136.612,142.727,134.705,144.429,131.761Zm.225,13.094a5.179,5.179,0,0,1-3.558,5.117,6.657,6.657,0,0,1-2.079.346h0c-2.262,0-4.462-1.222-6.921-3.846a57.158,57.158,0,0,1-6.11-8.076c-1.973-3.111-4.21-6.637-3.7-10.236A10.9,10.9,0,0,1,127.116,121a15.566,15.566,0,0,1,8.612-2.876,10.575,10.575,0,0,1,1.547.11l.028,0c3.283.389,5.566,1.689,6.6,3.76,1.156,2.308.733,5.512-1.161,8.789-2.226,3.851-.829,6.644.4,9.108A10.283,10.283,0,0,1,144.654,144.855Z" transform="translate(-114.794 -105.588)"/>
          <path id="Path_156" data-name="Path 156" class="cls-2" d="M223.608,274.621a13.752,13.752,0,0,0-8.3,1.108l-.126.066a.972.972,0,1,0,.909,1.719l.108-.056a11.81,11.81,0,0,1,7.061-.923.972.972,0,0,0,.348-1.914Z" transform="translate(-200.585 -249.398)"/>
          <path id="Path_157" data-name="Path 157" class="cls-2" d="M192.336,307.534a.986.986,0,1,0,.124,1.395l.025-.03h0A.969.969,0,0,0,192.336,307.534Z" transform="translate(-178.842 -279.304)"/>
          <path id="Path_158" data-name="Path 158" class="cls-2" d="M345.16,9.354a5.087,5.087,0,1,0,5.092,5.087A5.1,5.1,0,0,0,345.16,9.354Zm0,8.228a3.142,3.142,0,1,1,3.147-3.142A3.148,3.148,0,0,1,345.16,17.582Z" transform="translate(-314.556 -8.501)"/>
          <path id="Path_159" data-name="Path 159" class="cls-2" d="M253.89,7.579A3.79,3.79,0,1,0,250.1,3.79,3.8,3.8,0,0,0,253.89,7.579Zm0-5.634a1.845,1.845,0,1,1-1.848,1.845A1.849,1.849,0,0,1,253.89,1.945Z" transform="translate(-232.787 0)"/>
          <path id="Path_160" data-name="Path 160" class="cls-2" d="M168.491,30.7a3.4,3.4,0,1,0-3.4-3.4A3.406,3.406,0,0,0,168.491,30.7Zm0-4.856a1.455,1.455,0,1,1-1.459,1.455A1.459,1.459,0,0,1,168.491,25.843Z" transform="translate(-155.527 -21.719)"/>
          <path id="Path_161" data-name="Path 161" class="cls-2" d="M104.685,88.059a3.158,3.158,0,1,0-3.16-3.158A3.163,3.163,0,0,0,104.685,88.059Zm0-4.37A1.213,1.213,0,1,1,103.47,84.9,1.215,1.215,0,0,1,104.685,83.689Z" transform="translate(-97.76 -74.292)"/>
          <path id="Path_162" data-name="Path 162" class="cls-2" d="M63.14,151.085A2.915,2.915,0,1,0,66.058,154,2.919,2.919,0,0,0,63.14,151.085Zm0,3.885a.97.97,0,1,1,.972-.97A.972.972,0,0,1,63.14,154.97Z" transform="translate(-60.223 -137.312)"/>
          <path id="Path_163" data-name="Path 163" class="cls-2" d="M325.1,375.152l-.036-.007a.972.972,0,0,0-.358,1.911l.045.009a.972.972,0,0,0,.349-1.913Z" transform="translate(-299.884 -340.933)"/>
          <path id="Path_164" data-name="Path 164" class="cls-2" d="M265.954,379.2a8.8,8.8,0,0,0-3.121,2.247.972.972,0,0,0,1.465,1.279A6.789,6.789,0,0,1,266.706,381a.972.972,0,1,0-.752-1.794Z" transform="translate(-244.144 -344.565)"/>
        </g>
      </g>
    </g>
  </g>
</svg>
