<svg xmlns="http://www.w3.org/2000/svg" width="114" height="114" viewBox="0 0 114 114">
  <defs>
    <style>
      .cls-1 {
        fill: #fffcf3;
      }

      .cls-2 {
        fill: #f9c658;
      }
    </style>
  </defs>
  <g id="Group_114" data-name="Group 114" transform="translate(-1479 -1478)">
    <circle id="Ellipse_19" data-name="Ellipse 19" class="cls-1" cx="57" cy="57" r="57" transform="translate(1479 1478)"/>
    <g id="spa" transform="translate(1515 1475.139)">
      <path id="Path_167" data-name="Path 167" class="cls-2" d="M35.763,61.028v-9.3H30.212a10.736,10.736,0,0,0-2.262.241,9.53,9.53,0,0,0-3.676-6.389L20.69,42.861l-3.585,2.718a9.53,9.53,0,0,0-3.676,6.389,10.735,10.735,0,0,0-2.262-.241H5.617v9.3H0v5.551A10.747,10.747,0,0,0,10.735,77.313H30.645A10.747,10.747,0,0,0,41.38,66.578V61.028Zm-2.425-6.877v6.877H30.212a10.718,10.718,0,0,0-8.31,3.947V62.461a8.319,8.319,0,0,1,8.31-8.31ZM18.57,47.511,20.69,45.9l2.12,1.607a7.087,7.087,0,0,1,2.78,5.264,10.807,10.807,0,0,0-4.9,4.736,10.806,10.806,0,0,0-4.9-4.736,7.087,7.087,0,0,1,2.78-5.264ZM8.042,54.151h3.126a8.319,8.319,0,0,1,8.31,8.31v2.514a10.718,10.718,0,0,0-8.31-3.947H8.042ZM19.478,74.888H10.735a8.319,8.319,0,0,1-8.31-8.31V63.452h8.743a8.319,8.319,0,0,1,8.31,8.31Zm19.478-8.31a8.319,8.319,0,0,1-8.31,8.31H21.9V71.762a8.319,8.319,0,0,1,8.31-8.31h8.743Z"/>
    </g>
  </g>
</svg>
