<svg xmlns="http://www.w3.org/2000/svg" width="114" height="114" viewBox="0 0 114 114">
  <defs>
    <style>
      .cls-1 {
        fill: #fffcf3;
      }

      .cls-2 {
        fill: #f9c658;
      }
    </style>
  </defs>
  <g id="Group_113" data-name="Group 113" transform="translate(-1096 -1478)">
    <circle id="Ellipse_19" data-name="Ellipse 19" class="cls-1" cx="57" cy="57" r="57" transform="translate(1096 1478)"/>
    <g id="tea-cup" transform="translate(1133.5 1513.5)">
      <path id="Path_165" data-name="Path 165" class="cls-2" d="M37.857,179.8H29.342a7.21,7.21,0,0,0,1.957-4.644,8.773,8.773,0,0,0,7.624-8.686,4.194,4.194,0,0,0-4.189-4.189H31.307v-1.143A1.143,1.143,0,0,0,30.164,160H8.836a1.143,1.143,0,0,0-1.143,1.143v11.782a10.893,10.893,0,0,0-4.247-.73,1.143,1.143,0,0,0-1.078,1.078c-.009.167-.2,4.1,2.192,6.533H1.143a1.143,1.143,0,0,0,0,2.285h.57a5.875,5.875,0,0,0,5.753,4.723h24.07a5.875,5.875,0,0,0,5.753-4.723h.57a1.143,1.143,0,0,0,0-2.285ZM34.734,164.57a1.906,1.906,0,0,1,1.9,1.9,6.486,6.486,0,0,1-5.332,6.374V164.57Zm-5.713-2.285v2.285H9.979v-2.285Zm-19.043,4.57H29.021v8A4.957,4.957,0,0,1,24.07,179.8H17.682c2.389-2.437,2.2-6.365,2.192-6.533a1.143,1.143,0,0,0-1.078-1.078c-.168-.009-4.142-.2-6.576,2.235a6.568,6.568,0,0,0-1.1,1.475,6.566,6.566,0,0,0-1.1-1.475l-.044-.043v-7.531Zm2.339,12.9a6.26,6.26,0,0,1,1.519-3.706,6.26,6.26,0,0,1,3.706-1.519,6.26,6.26,0,0,1-1.519,3.706A6.26,6.26,0,0,1,12.317,179.751Zm-3.911-3.706a6.26,6.26,0,0,1,1.519,3.706,6.26,6.26,0,0,1-3.706-1.519A6.26,6.26,0,0,1,4.7,174.526a6.26,6.26,0,0,1,3.706,1.519Zm23.129,8.482H7.465a3.586,3.586,0,0,1-3.392-2.437H34.927A3.586,3.586,0,0,1,31.535,184.527Z" transform="translate(0 -147.813)"/>
      <path id="Path_166" data-name="Path 166" class="cls-2" d="M162.143,9.9a1.143,1.143,0,0,0,1.143-1.143.381.381,0,0,1,.381-.381h9.9a3.428,3.428,0,0,0,0-6.855H169.76a.381.381,0,0,1-.381-.381,1.143,1.143,0,0,0-2.285,0,2.669,2.669,0,0,0,2.666,2.666h3.809a1.143,1.143,0,0,1,0,2.285h-9.9A2.669,2.669,0,0,0,161,8.76,1.143,1.143,0,0,0,162.143,9.9Z" transform="translate(-148.736)"/>
    </g>
  </g>
</svg>
