<svg xmlns="http://www.w3.org/2000/svg" width="13.582" height="11.281" viewBox="0 0 13.582 11.281">
  <defs>
    <style>
      .cls-1 {
        opacity: 0.3;
      }

      .cls-2 {
        fill: #2d727c;
      }
    </style>
  </defs>
  <g id="left-arrow" class="cls-1">
    <g id="Group_22" data-name="Group 22" transform="translate(0 0)">
      <path id="Path_119" data-name="Path 119" class="cls-2" d="M12.818,46.249l.021,0H3.751l2.857-2.863a.75.75,0,0,0,0-1.055l-.445-.445a.744.744,0,0,0-1.05,0l-4.9,4.9a.749.749,0,0,0,0,1.053l4.9,4.9a.744.744,0,0,0,1.05,0l.445-.445a.736.736,0,0,0,.217-.525.714.714,0,0,0-.217-.515L3.719,48.375h9.11a.77.77,0,0,0,.753-.762v-.629A.755.755,0,0,0,12.818,46.249Z" transform="translate(0 -41.674)"/>
    </g>
  </g>
</svg>
