<svg xmlns="http://www.w3.org/2000/svg" width="83.392" height="67.471" viewBox="0 0 83.392 67.471">
  <defs>
    <style>
      .cls-1 {
        fill: #fff;
      }
    </style>
  </defs>
  <g id="Group_24" data-name="Group 24" transform="translate(-95.152 -104.044)">
    <g id="Group_4" data-name="Group 4" transform="translate(112.601 104.045)">
      <g id="Group_3" data-name="Group 3">
        <path id="Path_1" data-name="Path 1" class="cls-1" d="M124.8,129.484a13.316,13.316,0,0,1,.662-3.777,13.873,13.873,0,0,1,9.605-9c.02-.005.388-.083.388-.088a17.554,17.554,0,0,0-3.951-8.927,9.763,9.763,0,0,0-6.835-2.923h-.11a9.765,9.765,0,0,0-6.825,2.78,10.459,10.459,0,0,0-2.115,11.852.965.965,0,0,0,.389.491c.473.235,1.132-1.021,1.475-1.289a3.523,3.523,0,0,1,2.168-.746c.1,0,.208,0,.311.013a3.653,3.653,0,0,1,3.25,3.211l0,.035c.141,1.188-.684,2.257-1.179,3.277a11.665,11.665,0,0,0,3.138,13.883,15.172,15.172,0,0,0,4.929,2.913c-.627-.222-1.374-1.307-1.793-1.806a15.169,15.169,0,0,1-1.567-2.253A14.634,14.634,0,0,1,124.8,129.484Zm-.071,0" transform="translate(-114.644 -104.121)"/>
        <g id="Group_2" data-name="Group 2" transform="translate(12.155)">
          <g id="Group_1" data-name="Group 1">
            <path id="Path_2" data-name="Path 2" class="cls-1" d="M130.529,131.652s1.058,1.25,2.906.095,2.957-4.242,2.713-5.3-.9-3.725-2.958-2.96-3.942,3.189-3.809,4.916A7.727,7.727,0,0,0,130.529,131.652Z" transform="translate(-128.343 -106.068)"/>
            <path id="Path_3" data-name="Path 3" class="cls-1" d="M129.149,137.531a1.448,1.448,0,0,1-.376-1.654,2.67,2.67,0,0,1,2.491-1.459c.585.155,2.066.568,1.894,1.728s-1.241,2.191-2.168,2.089A4.927,4.927,0,0,1,129.149,137.531Z" transform="translate(-128.268 -107.226)"/>
            <path id="Path_4" data-name="Path 4" class="cls-1" d="M150.132,145.877a1.567,1.567,0,0,1-.112-1.832,2.891,2.891,0,0,1,2.917-1.123c.6.267,2.108.969,1.721,2.177a2.561,2.561,0,0,1-2.681,1.852A5.337,5.337,0,0,1,150.132,145.877Z" transform="translate(-130.481 -108.111)"/>
            <path id="Path_5" data-name="Path 5" class="cls-1" d="M135.1,136.074a2.461,2.461,0,0,1-.639-2.814,4.545,4.545,0,0,1,4.239-2.483c.994.263,3.516.967,3.222,2.94s-2.111,3.729-3.687,3.554A8.383,8.383,0,0,1,135.1,136.074Z" transform="translate(-128.856 -106.842)"/>
            <path id="Path_6" data-name="Path 6" class="cls-1" d="M138.609,144.328a1.435,1.435,0,0,1,1.274-1.138,2.8,2.8,0,0,1,2.571,1.479c.163.589.555,2.094-.561,2.508a2.479,2.479,0,0,1-2.963-.886A4.924,4.924,0,0,1,138.609,144.328Z" transform="translate(-129.31 -108.146)"/>
            <path id="Path_7" data-name="Path 7" class="cls-1" d="M145.882,118.688a1.181,1.181,0,0,1,1.2-.949,3.139,3.139,0,0,1,2.592,1.427c.186.529.641,1.879-.437,2.195a2.775,2.775,0,0,1-2.949-.921A4.154,4.154,0,0,1,145.882,118.688Z" transform="translate(-130.073 -105.48)"/>
            <path id="Path_8" data-name="Path 8" class="cls-1" d="M135.706,141.355s-.651-.439-.119-1.411a3.726,3.726,0,0,1,2.58-1.653c.534.053,1.883.2,1.551,1.258a3.286,3.286,0,0,1-2.362,2.163A3.692,3.692,0,0,1,135.706,141.355Z" transform="translate(-128.972 -107.634)"/>
            <path id="Path_9" data-name="Path 9" class="cls-1" d="M144.079,125.883s-.766-.167-.632-1.267a3.72,3.72,0,0,1,1.784-2.49c.516-.149,1.825-.507,1.907.594a3.29,3.29,0,0,1-1.394,2.884A3.7,3.7,0,0,1,144.079,125.883Z" transform="translate(-129.816 -105.921)"/>
            <path id="Path_10" data-name="Path 10" class="cls-1" d="M152.03,115.852s.114.41-.449.623a2.02,2.02,0,0,1-1.645-.228c-.2-.209-.7-.748-.2-1.064a1.781,1.781,0,0,1,1.736-.058A2,2,0,0,1,152.03,115.852Z" transform="translate(-130.454 -105.185)"/>
            <path id="Path_11" data-name="Path 11" class="cls-1" d="M147.9,135.228a.964.964,0,0,1-.541,1.01,1.859,1.859,0,0,1-1.95-.345c-.235-.336-.824-1.2-.218-1.713a1.647,1.647,0,0,1,2.062-.118A3.3,3.3,0,0,1,147.9,135.228Z" transform="translate(-129.973 -107.158)"/>
            <path id="Path_12" data-name="Path 12" class="cls-1" d="M154.14,128.163s.166.508-.64.769a3.3,3.3,0,0,1-2.363-.295c-.29-.26-1.014-.931-.287-1.32a2.915,2.915,0,0,1,2.49-.061A2.562,2.562,0,0,1,154.14,128.163Z" transform="translate(-130.561 -106.451)"/>
            <path id="Path_13" data-name="Path 13" class="cls-1" d="M143.119,141.207a.965.965,0,0,1,1.053-.451,1.861,1.861,0,0,1,1.308,1.487c-.025.409-.1,1.449-.9,1.473a1.646,1.646,0,0,1-1.684-1.2A3.3,3.3,0,0,1,143.119,141.207Z" transform="translate(-129.759 -107.89)"/>
            <path id="Path_14" data-name="Path 14" class="cls-1" d="M143.713,119.715a.758.758,0,0,1,.827-.354,1.461,1.461,0,0,1,1.026,1.168c-.02.321-.081,1.138-.706,1.157a1.293,1.293,0,0,1-1.322-.938A2.6,2.6,0,0,1,143.713,119.715Z" transform="translate(-129.827 -105.648)"/>
            <path id="Path_15" data-name="Path 15" class="cls-1" d="M146.56,112.454s.245.149.073.51a1.334,1.334,0,0,1-.9.645c-.194-.011-.687-.043-.588-.431a1.179,1.179,0,0,1,.811-.825A1.344,1.344,0,0,1,146.56,112.454Z" transform="translate(-129.994 -104.915)"/>
            <path id="Path_16" data-name="Path 16" class="cls-1" d="M150.644,117.405a.76.76,0,0,1,.827-.354,1.462,1.462,0,0,1,1.027,1.168c-.02.321-.081,1.138-.707,1.157a1.293,1.293,0,0,1-1.321-.939A2.589,2.589,0,0,1,150.644,117.405Z" transform="translate(-130.553 -105.406)"/>
            <path id="Path_17" data-name="Path 17" class="cls-1" d="M161.032,116.638s-.173.395-.8.123a2.636,2.636,0,0,1-1.26-1.438c-.034-.312-.109-1.1.535-.95a2.329,2.329,0,0,1,1.527,1.292A2.067,2.067,0,0,1,161.032,116.638Z" transform="translate(-131.443 -105.125)"/>
            <path id="Path_18" data-name="Path 18" class="cls-1" d="M155.332,118.191s-.188.382-.749.168A2.02,2.02,0,0,1,153.5,117.1c-.011-.29-.029-1.026.561-.926a1.783,1.783,0,0,1,1.336,1.109A2,2,0,0,1,155.332,118.191Z" transform="translate(-130.872 -105.315)"/>
            <path id="Path_19" data-name="Path 19" class="cls-1" d="M147.021,143.284s-.981.019-.817-1.745a8.219,8.219,0,0,1,2.265-4.53c.657-.418,2.33-1.452,2.441.234a7.255,7.255,0,0,1-1.763,5A4.967,4.967,0,0,1,147.021,143.284Z" transform="translate(-130.105 -107.427)"/>
            <path id="Path_20" data-name="Path 20" class="cls-1" d="M139.876,119.454s-.9-.388-.025-1.926a8.225,8.225,0,0,1,3.933-3.19c.772-.11,2.721-.361,2.128,1.22a7.265,7.265,0,0,1-3.669,3.828A4.962,4.962,0,0,1,139.876,119.454Z" transform="translate(-129.401 -105.115)"/>
            <path id="Path_21" data-name="Path 21" class="cls-1" d="M146.939,147.388s-.211-.235.434-.53a4.465,4.465,0,0,1,2.043-.312c.282.08.99.288.429.636a3.939,3.939,0,0,1-2.1.524A1.906,1.906,0,0,1,146.939,147.388Z" transform="translate(-130.18 -108.497)"/>
            <path id="Path_22" data-name="Path 22" class="cls-1" d="M141.844,127.621a1.3,1.3,0,0,1-.184,1.511,2.4,2.4,0,0,1-2.548.476c-.447-.307-1.573-1.106-1.075-2.034a2.123,2.123,0,0,1,2.464-1.106A4.421,4.421,0,0,1,141.844,127.621Z" transform="translate(-129.238 -106.383)"/>
            <path id="Path_23" data-name="Path 23" class="cls-1" d="M151.42,124.261a1.3,1.3,0,0,1-.184,1.511,2.4,2.4,0,0,1-2.547.477c-.447-.308-1.574-1.107-1.076-2.035a2.124,2.124,0,0,1,2.465-1.106A4.425,4.425,0,0,1,151.42,124.261Z" transform="translate(-130.241 -106.031)"/>
            <path id="Path_24" data-name="Path 24" class="cls-1" d="M155.682,110.413a1.3,1.3,0,0,1-.184,1.511,2.4,2.4,0,0,1-2.547.477c-.447-.308-1.574-1.107-1.076-2.035a2.124,2.124,0,0,1,2.465-1.106A4.425,4.425,0,0,1,155.682,110.413Z" transform="translate(-130.688 -104.579)"/>
            <path id="Path_25" data-name="Path 25" class="cls-1" d="M143.829,135.674s.765-.045.876,1.107a4.236,4.236,0,0,1-1.16,3.019c-.457.294-1.627,1.02-1.943-.073a3.743,3.743,0,0,1,.7-3.309A3.642,3.642,0,0,1,143.829,135.674Z" transform="translate(-129.612 -107.36)"/>
            <path id="Path_26" data-name="Path 26" class="cls-1" d="M142.434,121.129s.765-.045.876,1.107a4.236,4.236,0,0,1-1.16,3.019c-.457.294-1.627,1.02-1.943-.073a3.742,3.742,0,0,1,.7-3.309A3.643,3.643,0,0,1,142.434,121.129Z" transform="translate(-129.466 -105.835)"/>
            <path id="Path_27" data-name="Path 27" class="cls-1" d="M160.943,128.673a1.548,1.548,0,0,1-.824,1.881c-1.244.576-3.924.533-4.427.122s-1.285-2.14-.187-2.927,2.938-.493,4-.5C160.658,127.248,160.943,128.673,160.943,128.673Z" transform="translate(-131.023 -106.472)"/>
            <path id="Path_28" data-name="Path 28" class="cls-1" d="M145.29,105.073a1,1,0,0,1,.936-1.009,8.445,8.445,0,0,1,2.167.122,5.161,5.161,0,0,1,3.142,3.121c.049.647-.9,1.557-2.231,1.3a7.219,7.219,0,0,1-3.485-1.845A2.524,2.524,0,0,1,145.29,105.073Z" transform="translate(-130.011 -104.045)"/>
            <path id="Path_29" data-name="Path 29" class="cls-1" d="M142.674,129.742s.224-.259.64.3a3.806,3.806,0,0,1,.638,1.909c-.046.292-.17,1.026-.631.561a3.364,3.364,0,0,1-.877-1.918A1.877,1.877,0,0,1,142.674,129.742Z" transform="translate(-129.713 -106.732)"/>
            <path id="Path_30" data-name="Path 30" class="cls-1" d="M152.689,125.294s.055-.337.7-.082a3.805,3.805,0,0,1,1.55,1.286c.115.272.4.961-.241.809a3.355,3.355,0,0,1-1.756-1.168A1.884,1.884,0,0,1,152.689,125.294Z" transform="translate(-130.787 -106.253)"/>
            <path id="Path_31" data-name="Path 31" class="cls-1" d="M147.117,111.561s.055-.338.7-.083a3.808,3.808,0,0,1,1.549,1.287c.115.272.4.961-.241.809a3.364,3.364,0,0,1-1.756-1.168A1.878,1.878,0,0,1,147.117,111.561Z" transform="translate(-130.202 -104.814)"/>
            <path id="Path_32" data-name="Path 32" class="cls-1" d="M145.769,108.234s.055-.337.7-.082a3.8,3.8,0,0,1,1.549,1.286c.115.272.4.961-.241.809a3.358,3.358,0,0,1-1.756-1.168A1.875,1.875,0,0,1,145.769,108.234Z" transform="translate(-130.061 -104.465)"/>
            <path id="Path_33" data-name="Path 33" class="cls-1" d="M155.921,112.69s.055-.337.7-.082a3.8,3.8,0,0,1,1.549,1.286c.115.272.4.961-.24.809a3.357,3.357,0,0,1-1.757-1.168A1.875,1.875,0,0,1,155.921,112.69Z" transform="translate(-131.125 -104.932)"/>
            <path id="Path_34" data-name="Path 34" class="cls-1" d="M133.464,144.072s.063-.337.7-.066a3.8,3.8,0,0,1,1.518,1.323c.108.275.373.97-.26.8a3.361,3.361,0,0,1-1.729-1.209A1.885,1.885,0,0,1,133.464,144.072Z" transform="translate(-128.771 -108.222)"/>
            <path id="Path_35" data-name="Path 35" class="cls-1" d="M146.392,137.26s.337-.053.3.643a3.806,3.806,0,0,1-.743,1.871c-.224.194-.791.675-.844.022a3.362,3.362,0,0,1,.566-2.032A1.887,1.887,0,0,1,146.392,137.26Z" transform="translate(-129.991 -107.526)"/>
            <path id="Path_36" data-name="Path 36" class="cls-1" d="M156.581,120.105s.125.319-.563.429a3.8,3.8,0,0,1-1.988-.318c-.237-.176-.83-.626-.205-.819a3.355,3.355,0,0,1,2.106.11A1.883,1.883,0,0,1,156.581,120.105Z" transform="translate(-130.876 -105.642)"/>
            <path id="Path_37" data-name="Path 37" class="cls-1" d="M148.548,132.283s-.016.767-1.174.785a4.232,4.232,0,0,1-2.916-1.4c-.256-.48-.887-1.7.226-1.932a3.743,3.743,0,0,1,3.242.965A3.635,3.635,0,0,1,148.548,132.283Z" transform="translate(-129.881 -106.732)"/>
            <path id="Path_38" data-name="Path 38" class="cls-1" d="M134.556,140.945a1.3,1.3,0,0,1-.37,1.476,2.4,2.4,0,0,1-2.587.158c-.4-.361-1.424-1.293-.816-2.151a2.124,2.124,0,0,1,2.583-.794A4.432,4.432,0,0,1,134.556,140.945Z" transform="translate(-128.471 -107.755)"/>
            <path id="Path_39" data-name="Path 39" class="cls-1" d="M159.74,117.664a1.3,1.3,0,0,1-.369,1.477,2.4,2.4,0,0,1-2.587.158c-.406-.361-1.424-1.294-.816-2.152a2.123,2.123,0,0,1,2.583-.793A4.413,4.413,0,0,1,159.74,117.664Z" transform="translate(-131.11 -105.315)"/>
            <path id="Path_40" data-name="Path 40" class="cls-1" d="M136.777,123.171a1.3,1.3,0,0,1-1.09-1.063,2.4,2.4,0,0,1,1.163-2.316c.516-.168,1.834-.581,2.27.377a2.123,2.123,0,0,1-.612,2.632A4.422,4.422,0,0,1,136.777,123.171Z" transform="translate(-129.001 -105.671)"/>
            <path id="Path_41" data-name="Path 41" class="cls-1" d="M128.711,132.187a.717.717,0,0,1,.838-.073,1.326,1.326,0,0,1,.55,1.324c-.115.277-.419.978-.978.815a1.175,1.175,0,0,1-.881-1.207A2.458,2.458,0,0,1,128.711,132.187Z" transform="translate(-128.222 -106.976)"/>
            <path id="Path_42" data-name="Path 42" class="cls-1" d="M134.21,137.383a.718.718,0,0,1,.839-.073,1.326,1.326,0,0,1,.55,1.324c-.115.277-.419.978-.978.815a1.173,1.173,0,0,1-.881-1.207A2.437,2.437,0,0,1,134.21,137.383Z" transform="translate(-128.798 -107.521)"/>
            <path id="Path_43" data-name="Path 43" class="cls-1" d="M147.577,115.071a.718.718,0,0,1,.839-.073,1.326,1.326,0,0,1,.55,1.324c-.115.277-.419.978-.978.815a1.174,1.174,0,0,1-.881-1.207A2.437,2.437,0,0,1,147.577,115.071Z" transform="translate(-130.2 -105.182)"/>
            <path id="Path_44" data-name="Path 44" class="cls-1" d="M144.062,144.756a.719.719,0,0,1,.839-.073,1.326,1.326,0,0,1,.549,1.323c-.115.277-.419.978-.978.815a1.175,1.175,0,0,1-.881-1.207A2.458,2.458,0,0,1,144.062,144.756Z" transform="translate(-129.831 -108.293)"/>
            <path id="Path_45" data-name="Path 45" class="cls-1" d="M137.666,124.314a.718.718,0,0,1,.839-.073,1.327,1.327,0,0,1,.549,1.324c-.115.277-.419.978-.978.815a1.176,1.176,0,0,1-.881-1.208A2.45,2.45,0,0,1,137.666,124.314Z" transform="translate(-129.161 -106.151)"/>
            <path id="Path_46" data-name="Path 46" class="cls-1" d="M152.838,113.484a.718.718,0,0,1,.839-.073,1.326,1.326,0,0,1,.55,1.324c-.115.277-.419.978-.978.814a1.172,1.172,0,0,1-.881-1.207A2.439,2.439,0,0,1,152.838,113.484Z" transform="translate(-130.751 -105.016)"/>
            <path id="Path_47" data-name="Path 47" class="cls-1" d="M136.792,142.48a.963.963,0,0,1,.958.249,1.152,1.152,0,0,1-.071,1.439c-.268.214-.957.751-1.487.388a1.023,1.023,0,0,1-.353-1.455A3.2,3.2,0,0,1,136.792,142.48Z" transform="translate(-129.001 -108.069)"/>
            <path id="Path_48" data-name="Path 48" class="cls-1" d="M149.853,109.595a.961.961,0,0,1,.957.249,1.152,1.152,0,0,1-.071,1.439c-.267.214-.957.751-1.487.388a1.023,1.023,0,0,1-.352-1.455A3.188,3.188,0,0,1,149.853,109.595Z" transform="translate(-130.37 -104.622)"/>
            <path id="Path_49" data-name="Path 49" class="cls-1" d="M150.724,112.218a.719.719,0,0,1,.839-.073,1.325,1.325,0,0,1,.55,1.323c-.115.278-.419.978-.978.815a1.174,1.174,0,0,1-.881-1.207A2.447,2.447,0,0,1,150.724,112.218Z" transform="translate(-130.529 -104.883)"/>
            <path id="Path_50" data-name="Path 50" class="cls-1" d="M151.636,141.285a.619.619,0,0,1,.356-.632,1.143,1.143,0,0,1,1.208.253c.141.218.491.774.1,1.092a1.012,1.012,0,0,1-1.286.038A2.108,2.108,0,0,1,151.636,141.285Z" transform="translate(-130.676 -107.873)"/>
            <path id="Path_51" data-name="Path 51" class="cls-1" d="M137.015,128.976a.537.537,0,0,1,.627-.055.99.99,0,0,1,.41.989c-.086.207-.313.73-.73.609a.879.879,0,0,1-.658-.9A1.836,1.836,0,0,1,137.015,128.976Z" transform="translate(-129.105 -106.644)"/>
            <path id="Path_52" data-name="Path 52" class="cls-1" d="M137.116,145.609a.537.537,0,0,1,.627-.055.99.99,0,0,1,.41.989c-.086.207-.312.73-.73.609a.876.876,0,0,1-.658-.9A1.816,1.816,0,0,1,137.116,145.609Z" transform="translate(-129.116 -108.387)"/>
            <path id="Path_53" data-name="Path 53" class="cls-1" d="M153.605,129.574a.537.537,0,0,1,.627-.055.99.99,0,0,1,.41.989c-.086.207-.312.73-.73.609a.878.878,0,0,1-.658-.9A1.836,1.836,0,0,1,153.605,129.574Z" transform="translate(-130.844 -106.707)"/>
            <path id="Path_54" data-name="Path 54" class="cls-1" d="M143.578,133.6a.547.547,0,0,1,.579-.081.742.742,0,0,1,.325.831c-.09.183-.328.646-.7.564s-.653-.449-.558-.742A1.827,1.827,0,0,1,143.578,133.6Z" transform="translate(-129.792 -107.128)"/>
            <path id="Path_55" data-name="Path 55" class="cls-1" d="M143.175,127.634a.548.548,0,0,1,.58-.081.743.743,0,0,1,.324.831c-.09.183-.327.646-.7.564s-.653-.448-.558-.742A1.827,1.827,0,0,1,143.175,127.634Z" transform="translate(-129.75 -106.503)"/>
            <path id="Path_56" data-name="Path 56" class="cls-1" d="M150.3,133.977a.546.546,0,0,1,.579-.081.743.743,0,0,1,.325.832c-.09.183-.328.646-.7.564s-.654-.448-.558-.743A1.817,1.817,0,0,1,150.3,133.977Z" transform="translate(-130.497 -107.168)"/>
            <path id="Path_57" data-name="Path 57" class="cls-1" d="M140.717,141.209a.545.545,0,0,1,.579-.081.743.743,0,0,1,.325.831c-.09.183-.328.646-.705.564s-.653-.448-.557-.742A1.827,1.827,0,0,1,140.717,141.209Z" transform="translate(-129.492 -107.926)"/>
            <path id="Path_58" data-name="Path 58" class="cls-1" d="M150.2,122.136a.547.547,0,0,1,.293-.507.743.743,0,0,1,.855.253c.089.184.31.655.013.9a.659.659,0,0,1-.928-.015A1.834,1.834,0,0,1,150.2,122.136Z" transform="translate(-130.525 -105.882)"/>
            <path id="Path_59" data-name="Path 59" class="cls-1" d="M156.627,111.625a.547.547,0,0,1,.292-.507.743.743,0,0,1,.855.253c.09.184.31.655.013.9a.659.659,0,0,1-.927-.016A1.813,1.813,0,0,1,156.627,111.625Z" transform="translate(-131.199 -104.78)"/>
            <path id="Path_60" data-name="Path 60" class="cls-1" d="M132.734,134.264a.3.3,0,0,1-.045-.346.548.548,0,0,1,.539-.249c.116.043.412.157.354.391a.486.486,0,0,1-.485.384A1.008,1.008,0,0,1,132.734,134.264Z" transform="translate(-128.686 -107.149)"/>
            <path id="Path_61" data-name="Path 61" class="cls-1" d="M148.223,134.556a.3.3,0,0,1-.044-.346.549.549,0,0,1,.539-.25c.116.043.412.158.354.391a.487.487,0,0,1-.485.385A1.011,1.011,0,0,1,148.223,134.556Z" transform="translate(-130.31 -107.179)"/>
            <path id="Path_62" data-name="Path 62" class="cls-1" d="M146.675,126.516a.3.3,0,0,1-.044-.346.548.548,0,0,1,.539-.25c.116.043.412.158.353.391a.486.486,0,0,1-.485.385A1.012,1.012,0,0,1,146.675,126.516Z" transform="translate(-130.148 -106.336)"/>
            <path id="Path_63" data-name="Path 63" class="cls-1" d="M129.63,139.605a.3.3,0,0,1-.044-.346.549.549,0,0,1,.539-.25c.116.043.412.158.353.391a.486.486,0,0,1-.484.385A1.011,1.011,0,0,1,129.63,139.605Z" transform="translate(-128.361 -107.708)"/>
            <path id="Path_64" data-name="Path 64" class="cls-1" d="M153.842,142.932a.415.415,0,0,1-.062-.483.769.769,0,0,1,.753-.348c.163.06.575.219.493.546a.68.68,0,0,1-.678.537A1.425,1.425,0,0,1,153.842,142.932Z" transform="translate(-130.896 -108.032)"/>
            <path id="Path_65" data-name="Path 65" class="cls-1" d="M132.308,138.989a.233.233,0,0,1-.035-.271.431.431,0,0,1,.423-.2c.091.034.323.124.278.307a.382.382,0,0,1-.381.3A.79.79,0,0,1,132.308,138.989Z" transform="translate(-128.644 -107.657)"/>
            <path id="Path_66" data-name="Path 66" class="cls-1" d="M136.3,138.417a.235.235,0,0,1-.034-.272.43.43,0,0,1,.423-.2c.091.034.323.124.277.307a.381.381,0,0,1-.38.3A.805.805,0,0,1,136.3,138.417Z" transform="translate(-129.062 -107.598)"/>
            <path id="Path_67" data-name="Path 67" class="cls-1" d="M148.729,136.282a.233.233,0,0,1-.035-.271.43.43,0,0,1,.423-.2c.091.034.323.124.277.307a.381.381,0,0,1-.38.3A.79.79,0,0,1,148.729,136.282Z" transform="translate(-130.365 -107.374)"/>
            <path id="Path_68" data-name="Path 68" class="cls-1" d="M134.332,122.481a.233.233,0,0,1-.035-.271.431.431,0,0,1,.423-.2c.091.034.323.124.278.307a.382.382,0,0,1-.381.3A.79.79,0,0,1,134.332,122.481Z" transform="translate(-128.856 -105.927)"/>
            <path id="Path_69" data-name="Path 69" class="cls-1" d="M139.079,123.846a.232.232,0,0,1-.034-.271.43.43,0,0,1,.423-.2c.091.034.323.124.277.307a.381.381,0,0,1-.38.3A.789.789,0,0,1,139.079,123.846Z" transform="translate(-129.353 -106.07)"/>
            <path id="Path_70" data-name="Path 70" class="cls-1" d="M151.957,126.481a.234.234,0,0,1-.035-.272.432.432,0,0,1,.423-.2c.091.034.323.124.277.307a.382.382,0,0,1-.38.3A.806.806,0,0,1,151.957,126.481Z" transform="translate(-130.703 -106.346)"/>
            <path id="Path_71" data-name="Path 71" class="cls-1" d="M157.333,115.683a.234.234,0,0,1-.035-.272.43.43,0,0,1,.423-.2c.092.034.323.124.277.307a.381.381,0,0,1-.38.3A.781.781,0,0,1,157.333,115.683Z" transform="translate(-131.267 -105.215)"/>
            <path id="Path_72" data-name="Path 72" class="cls-1" d="M153.2,118.818a.234.234,0,0,1-.035-.272.432.432,0,0,1,.423-.2c.091.034.323.124.278.307a.382.382,0,0,1-.381.3A.806.806,0,0,1,153.2,118.818Z" transform="translate(-130.833 -105.543)"/>
            <path id="Path_73" data-name="Path 73" class="cls-1" d="M153.123,116.911a.541.541,0,0,1-.4.223.36.36,0,0,1-.294-.443c.048-.146.176-.516.446-.573s.491.1.448.318A1.751,1.751,0,0,1,153.123,116.911Z" transform="translate(-130.758 -105.309)"/>
            <path id="Path_74" data-name="Path 74" class="cls-1" d="M152.256,109.524a.541.541,0,0,1-.4.222.358.358,0,0,1-.293-.443c.048-.145.175-.515.445-.572s.491.1.448.317A1.762,1.762,0,0,1,152.256,109.524Z" transform="translate(-130.668 -104.535)"/>
            <path id="Path_75" data-name="Path 75" class="cls-1" d="M154.9,113.715a.234.234,0,0,1-.035-.272.43.43,0,0,1,.423-.2c.092.034.323.124.278.307a.382.382,0,0,1-.38.3A.8.8,0,0,1,154.9,113.715Z" transform="translate(-131.012 -105.008)"/>
            <path id="Path_76" data-name="Path 76" class="cls-1" d="M151.739,123.787a.58.58,0,0,1-.134-.4c.034-.2.29-.211.4-.131s.4.29.418.535-.145.394-.32.3A1.844,1.844,0,0,1,151.739,123.787Z" transform="translate(-130.672 -106.053)"/>
            <path id="Path_77" data-name="Path 77" class="cls-1" d="M149.282,117.5a.579.579,0,0,1-.134-.4c.034-.2.29-.212.4-.132s.4.29.418.536-.145.393-.32.3A1.835,1.835,0,0,1,149.282,117.5Z" transform="translate(-130.415 -105.394)"/>
            <path id="Path_78" data-name="Path 78" class="cls-1" d="M147.165,114.035a.576.576,0,0,1-.134-.4c.035-.2.291-.211.4-.131s.4.289.418.535-.144.393-.32.3A1.835,1.835,0,0,1,147.165,114.035Z" transform="translate(-130.193 -105.031)"/>
            <path id="Path_79" data-name="Path 79" class="cls-1" d="M147.914,122.828a.233.233,0,0,1-.035-.271.43.43,0,0,1,.423-.2c.091.034.323.124.277.307a.381.381,0,0,1-.38.3A.79.79,0,0,1,147.914,122.828Z" transform="translate(-130.279 -105.964)"/>
            <path id="Path_80" data-name="Path 80" class="cls-1" d="M136.3,124.354a.235.235,0,0,1-.034-.272.43.43,0,0,1,.423-.2c.091.034.323.124.277.307a.381.381,0,0,1-.38.3A.805.805,0,0,1,136.3,124.354Z" transform="translate(-129.062 -106.124)"/>
            <path id="Path_81" data-name="Path 81" class="cls-1" d="M146.247,117.348a.235.235,0,0,1-.035-.272.432.432,0,0,1,.423-.2c.091.034.323.124.277.307a.383.383,0,0,1-.381.3A.806.806,0,0,1,146.247,117.348Z" transform="translate(-130.105 -105.389)"/>
            <path id="Path_82" data-name="Path 82" class="cls-1" d="M148.875,114.6a.232.232,0,0,1-.034-.271.431.431,0,0,1,.423-.2c.091.034.323.124.278.307a.383.383,0,0,1-.38.3A.8.8,0,0,1,148.875,114.6Z" transform="translate(-130.38 -105.101)"/>
            <path id="Path_83" data-name="Path 83" class="cls-1" d="M149.429,127.717a.234.234,0,0,1-.035-.272.43.43,0,0,1,.423-.2c.092.034.323.124.277.307a.381.381,0,0,1-.38.3A.8.8,0,0,1,149.429,127.717Z" transform="translate(-130.438 -106.476)"/>
            <path id="Path_84" data-name="Path 84" class="cls-1" d="M155.634,127.14a.233.233,0,0,1-.035-.271.429.429,0,0,1,.423-.2c.092.034.323.124.278.307a.381.381,0,0,1-.38.3A.781.781,0,0,1,155.634,127.14Z" transform="translate(-131.089 -106.416)"/>
            <path id="Path_85" data-name="Path 85" class="cls-1" d="M160.587,118.212a.233.233,0,0,1-.035-.271.433.433,0,0,1,.423-.2c.091.034.323.124.278.307a.383.383,0,0,1-.381.3A.8.8,0,0,1,160.587,118.212Z" transform="translate(-131.608 -105.48)"/>
            <path id="Path_86" data-name="Path 86" class="cls-1" d="M146.215,145.079a.233.233,0,0,1-.035-.271.433.433,0,0,1,.423-.2c.091.034.323.124.277.307a.382.382,0,0,1-.381.3A.79.79,0,0,1,146.215,145.079Z" transform="translate(-130.101 -108.296)"/>
            <path id="Path_87" data-name="Path 87" class="cls-1" d="M135.309,142.591a.233.233,0,0,1-.035-.271.433.433,0,0,1,.423-.2c.091.034.323.124.277.307a.383.383,0,0,1-.381.3A.8.8,0,0,1,135.309,142.591Z" transform="translate(-128.958 -108.035)"/>
            <path id="Path_88" data-name="Path 88" class="cls-1" d="M144.748,133.406a.233.233,0,0,1-.035-.271.431.431,0,0,1,.423-.2c.091.034.323.124.277.307a.382.382,0,0,1-.381.3A.79.79,0,0,1,144.748,133.406Z" transform="translate(-129.947 -107.072)"/>
            <path id="Path_89" data-name="Path 89" class="cls-1" d="M142.371,126.793a.234.234,0,0,1-.034-.271.43.43,0,0,1,.423-.2c.091.034.323.124.278.307a.381.381,0,0,1-.38.3A.789.789,0,0,1,142.371,126.793Z" transform="translate(-129.698 -106.379)"/>
            <path id="Path_90" data-name="Path 90" class="cls-1" d="M141.137,130.863a.233.233,0,0,1-.035-.271.433.433,0,0,1,.423-.2c.091.034.323.124.277.307a.383.383,0,0,1-.381.3A.8.8,0,0,1,141.137,130.863Z" transform="translate(-129.569 -106.806)"/>
            <path id="Path_91" data-name="Path 91" class="cls-1" d="M140.58,139.336a.233.233,0,0,1-.035-.271.432.432,0,0,1,.423-.2c.091.034.323.124.277.307a.381.381,0,0,1-.38.3A.79.79,0,0,1,140.58,139.336Z" transform="translate(-129.511 -107.694)"/>
            <path id="Path_92" data-name="Path 92" class="cls-1" d="M138.669,142.573a.233.233,0,0,1-.035-.271.432.432,0,0,1,.423-.2c.091.034.323.124.277.307a.381.381,0,0,1-.38.3A.79.79,0,0,1,138.669,142.573Z" transform="translate(-129.31 -108.033)"/>
            <path id="Path_93" data-name="Path 93" class="cls-1" d="M150.415,132.426a.374.374,0,0,1-.039.366.4.4,0,0,1-.512.036c-.089-.09-.312-.322-.211-.534a.351.351,0,0,1,.5-.193A1.235,1.235,0,0,1,150.415,132.426Z" transform="translate(-130.466 -106.98)"/>
            <path id="Path_94" data-name="Path 94" class="cls-1" d="M140.847,121.027a.371.371,0,0,1-.04.365.394.394,0,0,1-.511.036c-.089-.09-.312-.322-.211-.534a.352.352,0,0,1,.5-.194A1.233,1.233,0,0,1,140.847,121.027Z" transform="translate(-129.463 -105.785)"/>
            <path id="Path_95" data-name="Path 95" class="cls-1" d="M159.546,113.068a.588.588,0,0,1-.029.56.561.561,0,0,1-.748.078c-.138-.133-.486-.479-.354-.807a.5.5,0,0,1,.713-.319A1.933,1.933,0,0,1,159.546,113.068Z" transform="translate(-131.384 -104.932)"/>
            <path id="Path_96" data-name="Path 96" class="cls-1" d="M148.729,145.974a.233.233,0,0,1-.035-.271.433.433,0,0,1,.423-.2c.091.034.323.124.277.308a.382.382,0,0,1-.38.3A.8.8,0,0,1,148.729,145.974Z" transform="translate(-130.365 -108.39)"/>
            <path id="Path_97" data-name="Path 97" class="cls-1" d="M150.725,147.666a.233.233,0,0,1-.034-.272.43.43,0,0,1,.423-.2c.091.034.323.124.278.307a.382.382,0,0,1-.38.3A.805.805,0,0,1,150.725,147.666Z" transform="translate(-130.574 -108.567)"/>
            <path id="Path_98" data-name="Path 98" class="cls-1" d="M151.136,142.573a.233.233,0,0,1-.035-.271.432.432,0,0,1,.423-.2c.091.034.323.124.277.307a.381.381,0,0,1-.38.3A.79.79,0,0,1,151.136,142.573Z" transform="translate(-130.617 -108.033)"/>
          </g>
          <circle id="Ellipse_1" data-name="Ellipse 1" class="cls-1" cx="0.761" cy="0.761" r="0.761" transform="translate(23.906 9.325)"/>
        </g>
      </g>
    </g>
    <g id="Group_5" data-name="Group 5" transform="translate(95.152 151.474)">
      <path id="Path_99" data-name="Path 99" class="cls-1" d="M103.064,164.2a3.549,3.549,0,0,1,1.814,3.349c-.124,2.631-2.106,4.181-5.337,4.181A6.406,6.406,0,0,1,95.3,170.5a4.862,4.862,0,0,1,.479-3.429h.178a3.51,3.51,0,0,0,3.808,3.8c1.756-.031,2.792-1.005,2.79-2.27,0-.819-.529-1.366-1.615-2.086l-3.519-2.336a3.78,3.78,0,0,1-1.933-3.624c.172-2.091,1.7-3.536,4.252-3.536a26.391,26.391,0,0,1,2.75.207h1.268l-.265,2.969H103.3c0-1.4-1.139-2.325-2.847-2.325-1.591,0-2.594.858-2.643,1.943-.049.795.561,1.328,1.407,1.877Z" transform="translate(-95.152 -157.027)"/>
      <path id="Path_100" data-name="Path 100" class="cls-1" d="M134.58,172.982c-.183,3.151-4.71,5.777-10.73,2.746-2.98-1.515-5.332-3.756-7.883-4-4.781-.04-7.825-2.85-7.825-7.351,0-4.539,3.1-7.351,7.946-7.351s7.933,2.813,7.933,7.351a6.8,6.8,0,0,1-5.14,6.991,38.97,38.97,0,0,1,6.222,2.056c3.643,1.394,7.122,1.293,9.364-.525Zm-18.492-2.1c2.848,0,4.632-2.49,4.632-6.5s-1.784-6.5-4.632-6.5-4.645,2.49-4.645,6.5S113.242,170.88,116.089,170.88Z" transform="translate(-96.513 -157.027)"/>
      <path id="Path_101" data-name="Path 101" class="cls-1" d="M142.664,157.343v.2h-.329a1.03,1.03,0,0,0-1.066.954v7.863c0,3.319-2.178,5.4-5.812,5.4-4.326,0-6.582-2.069-6.582-5.365v-7.853a1.028,1.028,0,0,0-1.068-1h-.329v-.2h5.82v.2h-.329a1.027,1.027,0,0,0-1.065.97v7.708c0,2.873,1.5,4.659,3.921,4.659,2.467,0,4.005-1.686,4.011-4.4v-7.967a1.029,1.029,0,0,0-1.067-.972h-.329v-.2Z" transform="translate(-98.54 -157.06)"/>
      <path id="Path_102" data-name="Path 102" class="cls-1" d="M151.909,171.48h-6.136l0-.2h.256a1.3,1.3,0,0,0,1.294-1.27V158.8a1.294,1.294,0,0,0-1.294-1.262h-.255l0-.2h6.135l0,.2h-.256a1.3,1.3,0,0,0-1.294,1.258v11.208a1.3,1.3,0,0,0,1.294,1.27h.255Z" transform="translate(-100.457 -157.06)"/>
      <path id="Path_103" data-name="Path 103" class="cls-1" d="M161.481,157.342c2.448,0,4.8,1,4.8,3.809a3.67,3.67,0,0,1-3.306,3.838,4.323,4.323,0,0,1,2.06,1.789c.062.1,1.273,2.019,2.034,2.968.871,1.109,1.447,1.516,2.5,1.532v.2h-1.967c-2.209,0-3.816-.478-4.744-2.094-.491-.856-1.4-2.856-1.683-3.459-.392-.843-.842-1.271-1.367-1.361v-.192h.617a2.533,2.533,0,0,0,2.55-2.335,4.2,4.2,0,0,0,.074-.978c-.081-1.931-1.055-2.8-2.382-2.828-.535-.023-1.278,0-1.532-.006v11.782a1.293,1.293,0,0,0,1.3,1.269h.252l0,.2h-6.141l0-.2h.255a1.292,1.292,0,0,0,1.293-1.26V158.812a1.292,1.292,0,0,0-1.291-1.268h-.258l0-.2Z" transform="translate(-101.377 -157.06)"/>
      <path id="Path_104" data-name="Path 104" class="cls-1" d="M178.064,157.342c2.448,0,4.8,1,4.8,3.809a3.67,3.67,0,0,1-3.307,3.838,4.321,4.321,0,0,1,2.061,1.789c.062.1,1.273,2.019,2.034,2.968.871,1.109,1.447,1.516,2.5,1.532v.2h-1.967c-2.209,0-3.816-.478-4.744-2.094-.491-.856-1.4-2.856-1.683-3.459-.392-.843-.843-1.271-1.367-1.361v-.192h.617a2.532,2.532,0,0,0,2.549-2.335,4.146,4.146,0,0,0,.075-.978c-.081-1.931-1.055-2.8-2.382-2.828-.535-.023-1.278,0-1.532-.006v11.782a1.293,1.293,0,0,0,1.3,1.269h.252l0,.2h-6.141l0-.2h.256a1.292,1.292,0,0,0,1.293-1.26V158.812a1.292,1.292,0,0,0-1.292-1.268h-.257l0-.2Z" transform="translate(-103.116 -157.06)"/>
    </g>
    <g id="Group_7" data-name="Group 7" transform="translate(135.229 167.852)">
      <g id="Group_6" data-name="Group 6" transform="translate(0)">
        <path id="Path_105" data-name="Path 105" class="cls-1" d="M141.212,175.951c-.065-.235-.181-.5-.5-.5a.385.385,0,0,0-.413.4c0,.257.173.382.477.53s.647.328.647.73a.756.756,0,0,1-.844.705,1.155,1.155,0,0,1-.375-.06,1.21,1.21,0,0,1-.185-.078,5.526,5.526,0,0,1-.1-.582l.112-.033c.063.233.245.615.628.615a.4.4,0,0,0,.432-.43c0-.265-.2-.39-.484-.54-.26-.131-.618-.312-.618-.715a.7.7,0,0,1,.782-.668,1.609,1.609,0,0,1,.485.088c.014.13.032.28.064.52Z" transform="translate(-139.922 -175.323)"/>
        <path id="Path_106" data-name="Path 106" class="cls-1" d="M145.675,177.756v-.106c.233-.032.265-.064.215-.212s-.119-.328-.2-.537h-.8c-.063.167-.113.31-.16.455-.081.223-.05.265.232.295v.106h-.824v-.106c.243-.038.295-.062.427-.388l.786-1.907.13-.033c.239.648.48,1.3.728,1.94.119.323.172.363.414.388v.106Zm-.367-1.93H145.3c-.12.3-.237.615-.35.91h.685Z" transform="translate(-140.364 -175.323)"/>
        <path id="Path_107" data-name="Path 107" class="cls-1" d="M151.29,177.173c-.025.124-.1.477-.141.59h-1.725v-.106c.32-.022.353-.047.353-.367v-1.435c0-.318-.025-.34-.335-.36v-.11h1.012v.11c-.294.02-.33.039-.33.36v1.422c0,.2.018.27.088.308a.826.826,0,0,0,.347.047.522.522,0,0,0,.415-.117,1,1,0,0,0,.2-.364Z" transform="translate(-140.918 -175.33)"/>
        <path id="Path_108" data-name="Path 108" class="cls-1" d="M155.33,175.323a1.215,1.215,0,0,1,1.253,1.213,1.245,1.245,0,0,1-1.3,1.277,1.221,1.221,0,0,1-1.263-1.223,1.257,1.257,0,0,1,1.31-1.268Zm-.082.138c-.42,0-.82.343-.82,1.035,0,.672.4,1.18.935,1.18.42,0,.8-.335.8-1.042,0-.768-.425-1.173-.918-1.173Z" transform="translate(-141.399 -175.323)"/>
        <path id="Path_109" data-name="Path 109" class="cls-1" d="M162.078,175.5c-.208.01-.3.052-.315.219a5.88,5.88,0,0,0-.022.623V177.8h-.12l-1.643-1.906h0l0,.893a5.775,5.775,0,0,0,.025.616c.017.19.1.235.36.254v.106h-.9v-.106c.215-.014.31-.062.328-.244a4.9,4.9,0,0,0,.03-.626V176c0-.268-.013-.288-.08-.375a.409.409,0,0,0-.333-.132v-.11h.576l1.593,1.8h.01v-.852a5.869,5.869,0,0,0-.025-.611c-.017-.172-.1-.219-.372-.232v-.11h.893Z" transform="translate(-141.964 -175.33)"/>
        <path id="Path_110" data-name="Path 110" class="cls-1" d="M170.923,176.3a.5.5,0,0,0-.442.272c-.1.138-.192.287-.322.478a3.75,3.75,0,0,1,.617.739l-.02.035a.955.955,0,0,1-.487-.145c-.047-.05-.2-.218-.325-.345a.987.987,0,0,1-.781.475.7.7,0,0,1-.75-.671c0-.335.23-.47.555-.695a.672.672,0,0,1-.267-.51.612.612,0,0,1,.628-.585.533.533,0,0,1,.568.51.4.4,0,0,1-.158.32,3.516,3.516,0,0,1-.3.218c.125.1.388.32.628.557a2.373,2.373,0,0,0,.222-.407c.067-.165.035-.212-.23-.247l0-.106h.865Zm-1.647,1.245a.769.769,0,0,0,.575-.313,6.547,6.547,0,0,0-.785-.7.6.6,0,0,0-.31.5.506.506,0,0,0,.517.52Zm.015-2.068a.323.323,0,0,0-.3.363c0,.19.113.315.343.485a.55.55,0,0,0,.265-.463.347.347,0,0,0-.305-.385Z" transform="translate(-142.908 -175.326)"/>
        <path id="Path_111" data-name="Path 111" class="cls-1" d="M178.345,175.951c-.064-.235-.18-.5-.494-.5a.385.385,0,0,0-.413.4c0,.257.173.382.477.53s.647.328.647.73a.756.756,0,0,1-.845.705,1.153,1.153,0,0,1-.374-.06,1.21,1.21,0,0,1-.185-.078,5.293,5.293,0,0,1-.1-.582l.112-.033c.063.233.245.615.628.615a.4.4,0,0,0,.432-.43c0-.265-.2-.39-.485-.54-.26-.131-.617-.312-.617-.715a.7.7,0,0,1,.782-.668,1.609,1.609,0,0,1,.485.088c.014.13.032.28.064.52Z" transform="translate(-143.814 -175.323)"/>
        <path id="Path_112" data-name="Path 112" class="cls-1" d="M182.279,175.385a1.065,1.065,0,0,1,.633.152.612.612,0,0,1,.245.52.752.752,0,0,1-.73.75,1.089,1.089,0,0,1-.175,0l-.279-.07v.558c0,.312.032.332.372.357v.106H181.3v-.106c.3-.025.33-.055.33-.36v-1.442c0-.328-.032-.343-.31-.36v-.11Zm-.307,1.23a.838.838,0,0,0,.267.045.577.577,0,0,0-.022-1.152.345.345,0,0,0-.205.045c-.025.025-.039.065-.039.167Z" transform="translate(-144.259 -175.33)"/>
        <path id="Path_113" data-name="Path 113" class="cls-1" d="M187.073,177.756v-.106c.233-.032.265-.064.215-.212s-.12-.328-.2-.537h-.8c-.063.167-.113.31-.159.455-.081.223-.05.265.232.295v.106h-.825v-.106c.243-.038.3-.062.428-.388l.785-1.907.13-.033c.24.648.481,1.3.728,1.94.12.323.172.363.414.388v.106Zm-.368-1.93H186.7c-.12.3-.237.615-.35.91h.685Z" transform="translate(-144.703 -175.323)"/>
      </g>
    </g>
  </g>
</svg>
