<svg xmlns="http://www.w3.org/2000/svg" width="93.156" height="75.371" viewBox="0 0 93.156 75.371">
  <g id="Group_8" data-name="Group 8" transform="translate(-95.152 -104.045)">
    <g id="Group_4" data-name="Group 4">
      <g id="Group_3" data-name="Group 3">
        <path id="Path_1" data-name="Path 1" d="M125.993,132.377a14.876,14.876,0,0,1,.739-4.219,15.5,15.5,0,0,1,10.73-10.049c.022-.006.433-.093.433-.1a19.61,19.61,0,0,0-4.414-9.972,10.906,10.906,0,0,0-7.635-3.265h-.123a10.909,10.909,0,0,0-7.624,3.106,11.684,11.684,0,0,0-2.363,13.24,1.078,1.078,0,0,0,.435.548c.528.262,1.265-1.14,1.648-1.44a3.936,3.936,0,0,1,2.422-.833c.115,0,.232.005.347.015a4.08,4.08,0,0,1,3.63,3.587l0,.039c.158,1.327-.764,2.521-1.317,3.661-2.635,5.432-.91,11.613,3.505,15.508a16.948,16.948,0,0,0,5.506,3.254c-.7-.248-1.535-1.46-2-2.017a16.946,16.946,0,0,1-1.751-2.517A16.347,16.347,0,0,1,125.993,132.377Zm-.079,0"/>
        <g id="Group_2" data-name="Group 2">
          <g id="Group_1" data-name="Group 1">
            <path id="Path_2" data-name="Path 2" d="M130.664,132.624s1.182,1.4,3.246.106,3.3-4.739,3.031-5.918-1-4.161-3.3-3.307-4.4,3.562-4.255,5.492A8.632,8.632,0,0,0,130.664,132.624Z"/>
            <path id="Path_3" data-name="Path 3" d="M129.207,137.9a1.618,1.618,0,0,1-.42-1.848,2.983,2.983,0,0,1,2.783-1.63c.653.173,2.308.635,2.116,1.93s-1.386,2.448-2.422,2.334A5.5,5.5,0,0,1,129.207,137.9Z"/>
            <path id="Path_4" data-name="Path 4" d="M150.174,146.233a1.75,1.75,0,0,1-.125-2.047,3.229,3.229,0,0,1,3.258-1.254c.667.3,2.355,1.082,1.923,2.432s-1.909,2.373-2.995,2.069A5.962,5.962,0,0,1,150.174,146.233Z"/>
            <path id="Path_5" data-name="Path 5" d="M135.2,136.7a2.749,2.749,0,0,1-.714-3.143,5.077,5.077,0,0,1,4.735-2.774c1.11.294,3.928,1.08,3.6,3.284s-2.358,4.166-4.119,3.97A9.365,9.365,0,0,1,135.2,136.7Z"/>
            <path id="Path_6" data-name="Path 6" d="M138.609,144.463a1.6,1.6,0,0,1,1.423-1.271,3.127,3.127,0,0,1,2.872,1.652c.182.658.62,2.339-.627,2.8s-2.881-.024-3.31-.99A5.5,5.5,0,0,1,138.609,144.463Z"/>
            <path id="Path_7" data-name="Path 7" d="M145.882,118.8a1.319,1.319,0,0,1,1.339-1.06,3.507,3.507,0,0,1,2.9,1.594c.208.591.716,2.1-.488,2.452a3.1,3.1,0,0,1-3.294-1.029A4.641,4.641,0,0,1,145.882,118.8Z"/>
            <path id="Path_8" data-name="Path 8" d="M135.744,141.714s-.727-.49-.133-1.576a4.163,4.163,0,0,1,2.882-1.847c.6.059,2.1.229,1.733,1.4a3.671,3.671,0,0,1-2.639,2.416A4.125,4.125,0,0,1,135.744,141.714Z"/>
            <path id="Path_9" data-name="Path 9" d="M144.155,126.344s-.856-.186-.706-1.415a4.155,4.155,0,0,1,1.993-2.782c.576-.166,2.039-.566,2.13.663a3.675,3.675,0,0,1-1.557,3.222A4.137,4.137,0,0,1,144.155,126.344Z"/>
            <path id="Path_10" data-name="Path 10" d="M152.324,115.961s.127.458-.5.7a2.256,2.256,0,0,1-1.838-.255c-.224-.234-.785-.836-.218-1.189a1.989,1.989,0,0,1,1.939-.065A2.234,2.234,0,0,1,152.324,115.961Z"/>
            <path id="Path_11" data-name="Path 11" d="M148.249,135.4a1.077,1.077,0,0,1-.6,1.128,2.077,2.077,0,0,1-2.178-.385c-.263-.375-.921-1.336-.243-1.914a1.84,1.84,0,0,1,2.3-.132A3.69,3.69,0,0,1,148.249,135.4Z"/>
            <path id="Path_12" data-name="Path 12" d="M154.562,128.3s.185.568-.715.859a3.686,3.686,0,0,1-2.64-.329c-.324-.291-1.133-1.04-.321-1.475a3.256,3.256,0,0,1,2.782-.068A2.862,2.862,0,0,1,154.562,128.3Z"/>
            <path id="Path_13" data-name="Path 13" d="M143.146,141.262a1.078,1.078,0,0,1,1.176-.5,2.079,2.079,0,0,1,1.461,1.661c-.028.457-.116,1.619-1.006,1.646a1.839,1.839,0,0,1-1.881-1.335A3.691,3.691,0,0,1,143.146,141.262Z"/>
            <path id="Path_14" data-name="Path 14" d="M143.734,119.759a.847.847,0,0,1,.924-.4,1.632,1.632,0,0,1,1.146,1.305c-.022.359-.09,1.271-.789,1.292a1.444,1.444,0,0,1-1.477-1.048A2.9,2.9,0,0,1,143.734,119.759Z"/>
            <path id="Path_15" data-name="Path 15" d="M146.727,112.466s.274.166.081.57a1.49,1.49,0,0,1-1.006.72c-.217-.012-.767-.048-.657-.481a1.317,1.317,0,0,1,.906-.922A1.5,1.5,0,0,1,146.727,112.466Z"/>
            <path id="Path_16" data-name="Path 16" d="M150.665,117.449a.848.848,0,0,1,.924-.4,1.633,1.633,0,0,1,1.147,1.305c-.022.359-.09,1.271-.79,1.293a1.444,1.444,0,0,1-1.476-1.049A2.892,2.892,0,0,1,150.665,117.449Z"/>
            <path id="Path_17" data-name="Path 17" d="M161.275,116.9s-.193.441-.889.137a2.944,2.944,0,0,1-1.408-1.606c-.038-.348-.122-1.232.6-1.061a2.6,2.6,0,0,1,1.706,1.443A2.309,2.309,0,0,1,161.275,116.9Z"/>
            <path id="Path_18" data-name="Path 18" d="M155.546,118.429s-.21.427-.837.188a2.256,2.256,0,0,1-1.2-1.412c-.012-.324-.032-1.146.627-1.034a1.992,1.992,0,0,1,1.492,1.239A2.237,2.237,0,0,1,155.546,118.429Z"/>
            <path id="Path_19" data-name="Path 19" d="M147.119,144.1s-1.1.021-.913-1.949a9.181,9.181,0,0,1,2.53-5.06c.734-.467,2.6-1.622,2.727.261s-.844,4.64-1.969,5.587A5.548,5.548,0,0,1,147.119,144.1Z"/>
            <path id="Path_20" data-name="Path 20" d="M139.924,120.063s-1.007-.433-.028-2.152a9.188,9.188,0,0,1,4.393-3.564c.862-.123,3.04-.4,2.377,1.363s-2.685,3.877-4.1,4.276A5.543,5.543,0,0,1,139.924,120.063Z"/>
            <path id="Path_21" data-name="Path 21" d="M146.943,147.49s-.236-.262.485-.592a4.988,4.988,0,0,1,2.282-.349c.315.089,1.106.322.479.71a4.4,4.4,0,0,1-2.347.585A2.129,2.129,0,0,1,146.943,147.49Z"/>
            <path id="Path_22" data-name="Path 22" d="M142.3,127.77a1.451,1.451,0,0,1-.206,1.688,2.678,2.678,0,0,1-2.846.532c-.5-.343-1.757-1.236-1.2-2.272a2.372,2.372,0,0,1,2.753-1.236A4.938,4.938,0,0,1,142.3,127.77Z"/>
            <path id="Path_23" data-name="Path 23" d="M151.88,124.41a1.451,1.451,0,0,1-.206,1.688,2.677,2.677,0,0,1-2.845.533c-.5-.344-1.758-1.237-1.2-2.273a2.373,2.373,0,0,1,2.754-1.236A4.943,4.943,0,0,1,151.88,124.41Z"/>
            <path id="Path_24" data-name="Path 24" d="M156.142,110.562a1.451,1.451,0,0,1-.206,1.688,2.677,2.677,0,0,1-2.845.533c-.5-.344-1.758-1.237-1.2-2.273a2.373,2.373,0,0,1,2.754-1.236A4.943,4.943,0,0,1,156.142,110.562Z"/>
            <path id="Path_25" data-name="Path 25" d="M144.1,135.674s.855-.05.979,1.237a4.732,4.732,0,0,1-1.3,3.372c-.511.328-1.818,1.139-2.171-.081a4.181,4.181,0,0,1,.785-3.7A4.068,4.068,0,0,1,144.1,135.674Z"/>
            <path id="Path_26" data-name="Path 26" d="M142.709,121.129s.855-.05.979,1.237a4.732,4.732,0,0,1-1.3,3.372c-.511.328-1.818,1.139-2.171-.081a4.18,4.18,0,0,1,.784-3.7A4.069,4.069,0,0,1,142.709,121.129Z"/>
            <path id="Path_27" data-name="Path 27" d="M161.645,128.845a1.73,1.73,0,0,1-.921,2.1c-1.39.643-4.383.6-4.945.136s-1.436-2.391-.209-3.27,3.282-.551,4.466-.555C161.326,127.254,161.645,128.845,161.645,128.845Z"/>
            <path id="Path_28" data-name="Path 28" d="M145.29,105.193a1.111,1.111,0,0,1,1.046-1.127,9.434,9.434,0,0,1,2.421.136,5.766,5.766,0,0,1,3.51,3.486c.055.723-1.009,1.739-2.492,1.457a8.064,8.064,0,0,1-3.893-2.061A2.82,2.82,0,0,1,145.29,105.193Z"/>
            <path id="Path_29" data-name="Path 29" d="M142.7,129.749s.25-.289.715.335a4.252,4.252,0,0,1,.713,2.133c-.051.326-.19,1.146-.705.627a3.757,3.757,0,0,1-.98-2.143A2.1,2.1,0,0,1,142.7,129.749Z"/>
            <path id="Path_30" data-name="Path 30" d="M152.689,125.315s.061-.377.785-.092a4.251,4.251,0,0,1,1.731,1.437c.128.3.442,1.074-.269.9a3.748,3.748,0,0,1-1.962-1.305A2.1,2.1,0,0,1,152.689,125.315Z"/>
            <path id="Path_31" data-name="Path 31" d="M147.117,111.582s.061-.378.785-.093a4.254,4.254,0,0,1,1.73,1.438c.128.3.442,1.074-.269.9a3.757,3.757,0,0,1-1.962-1.305A2.1,2.1,0,0,1,147.117,111.582Z"/>
            <path id="Path_32" data-name="Path 32" d="M145.769,108.255s.061-.377.785-.092a4.246,4.246,0,0,1,1.73,1.437c.128.3.442,1.074-.269.9a3.751,3.751,0,0,1-1.962-1.305A2.1,2.1,0,0,1,145.769,108.255Z"/>
            <path id="Path_33" data-name="Path 33" d="M155.921,112.711s.061-.377.785-.092a4.247,4.247,0,0,1,1.73,1.437c.128.3.442,1.074-.268.9a3.75,3.75,0,0,1-1.963-1.305A2.094,2.094,0,0,1,155.921,112.711Z"/>
            <path id="Path_34" data-name="Path 34" d="M133.464,144.092s.07-.376.787-.074a4.25,4.25,0,0,1,1.7,1.478c.121.307.417,1.084-.29.9a3.755,3.755,0,0,1-1.931-1.351A2.106,2.106,0,0,1,133.464,144.092Z"/>
            <path id="Path_35" data-name="Path 35" d="M146.544,137.26s.377-.059.331.718a4.252,4.252,0,0,1-.83,2.09c-.25.217-.884.754-.943.025a3.755,3.755,0,0,1,.632-2.27A2.108,2.108,0,0,1,146.544,137.26Z"/>
            <path id="Path_36" data-name="Path 36" d="M156.936,120.2s.14.356-.629.479a4.25,4.25,0,0,1-2.221-.355c-.265-.2-.927-.7-.229-.915a3.748,3.748,0,0,1,2.353.123A2.1,2.1,0,0,1,156.936,120.2Z"/>
            <path id="Path_37" data-name="Path 37" d="M149.075,132.588s-.018.857-1.311.877a4.727,4.727,0,0,1-3.257-1.561c-.286-.536-.991-1.9.253-2.158a4.181,4.181,0,0,1,3.622,1.078A4.06,4.06,0,0,1,149.075,132.588Z"/>
            <path id="Path_38" data-name="Path 38" d="M135.02,141.121a1.45,1.45,0,0,1-.413,1.649,2.677,2.677,0,0,1-2.89.177c-.452-.4-1.591-1.444-.911-2.4a2.373,2.373,0,0,1,2.885-.887A4.951,4.951,0,0,1,135.02,141.121Z"/>
            <path id="Path_39" data-name="Path 39" d="M160.2,117.84a1.452,1.452,0,0,1-.412,1.65,2.679,2.679,0,0,1-2.89.177c-.453-.4-1.591-1.445-.911-2.4a2.372,2.372,0,0,1,2.885-.886A4.929,4.929,0,0,1,160.2,117.84Z"/>
            <path id="Path_40" data-name="Path 40" d="M136.908,123.594a1.45,1.45,0,0,1-1.218-1.187,2.679,2.679,0,0,1,1.3-2.587c.576-.188,2.049-.649,2.536.421a2.372,2.372,0,0,1-.684,2.94A4.94,4.94,0,0,1,136.908,123.594Z"/>
            <path id="Path_41" data-name="Path 41" d="M128.768,132.208a.8.8,0,0,1,.936-.082,1.482,1.482,0,0,1,.614,1.479c-.129.309-.468,1.092-1.092.91a1.312,1.312,0,0,1-.984-1.348A2.746,2.746,0,0,1,128.768,132.208Z"/>
            <path id="Path_42" data-name="Path 42" d="M134.267,137.4a.8.8,0,0,1,.937-.082,1.482,1.482,0,0,1,.614,1.479c-.129.309-.468,1.092-1.092.91a1.31,1.31,0,0,1-.984-1.348A2.723,2.723,0,0,1,134.267,137.4Z"/>
            <path id="Path_43" data-name="Path 43" d="M147.634,115.092a.8.8,0,0,1,.937-.082,1.482,1.482,0,0,1,.614,1.479c-.129.309-.468,1.092-1.092.91a1.312,1.312,0,0,1-.984-1.348A2.723,2.723,0,0,1,147.634,115.092Z"/>
            <path id="Path_44" data-name="Path 44" d="M144.119,144.777a.8.8,0,0,1,.937-.081,1.481,1.481,0,0,1,.613,1.478c-.129.31-.468,1.093-1.092.91a1.312,1.312,0,0,1-.984-1.348A2.746,2.746,0,0,1,144.119,144.777Z"/>
            <path id="Path_45" data-name="Path 45" d="M137.723,124.335a.8.8,0,0,1,.937-.082,1.482,1.482,0,0,1,.613,1.479c-.129.309-.468,1.092-1.092.91a1.313,1.313,0,0,1-.984-1.349A2.737,2.737,0,0,1,137.723,124.335Z"/>
            <path id="Path_46" data-name="Path 46" d="M152.9,113.5a.8.8,0,0,1,.937-.082,1.481,1.481,0,0,1,.614,1.479c-.129.309-.468,1.092-1.092.909a1.309,1.309,0,0,1-.984-1.348A2.725,2.725,0,0,1,152.9,113.5Z"/>
            <path id="Path_47" data-name="Path 47" d="M136.925,142.484a1.076,1.076,0,0,1,1.07.278,1.287,1.287,0,0,1-.079,1.607c-.3.239-1.069.839-1.661.433a1.143,1.143,0,0,1-.394-1.625A3.574,3.574,0,0,1,136.925,142.484Z"/>
            <path id="Path_48" data-name="Path 48" d="M149.986,109.6a1.074,1.074,0,0,1,1.069.278,1.287,1.287,0,0,1-.079,1.607c-.3.239-1.069.839-1.661.433a1.143,1.143,0,0,1-.393-1.625A3.561,3.561,0,0,1,149.986,109.6Z"/>
            <path id="Path_49" data-name="Path 49" d="M150.781,112.239a.8.8,0,0,1,.937-.081,1.48,1.48,0,0,1,.614,1.478c-.129.31-.468,1.093-1.092.91a1.311,1.311,0,0,1-.984-1.348A2.734,2.734,0,0,1,150.781,112.239Z"/>
            <path id="Path_50" data-name="Path 50" d="M151.636,141.368a.691.691,0,0,1,.4-.706,1.277,1.277,0,0,1,1.35.283c.157.243.548.865.115,1.22a1.131,1.131,0,0,1-1.437.043A2.355,2.355,0,0,1,151.636,141.368Z"/>
            <path id="Path_51" data-name="Path 51" d="M137.058,128.991a.6.6,0,0,1,.7-.061,1.106,1.106,0,0,1,.458,1.105c-.1.231-.35.816-.816.68a.981.981,0,0,1-.735-1.007A2.051,2.051,0,0,1,137.058,128.991Z"/>
            <path id="Path_52" data-name="Path 52" d="M137.159,145.624a.6.6,0,0,1,.7-.062,1.106,1.106,0,0,1,.458,1.105c-.1.231-.349.816-.815.68a.979.979,0,0,1-.735-1.007A2.029,2.029,0,0,1,137.159,145.624Z"/>
            <path id="Path_53" data-name="Path 53" d="M153.648,129.589a.6.6,0,0,1,.7-.061,1.106,1.106,0,0,1,.458,1.1c-.1.231-.349.816-.816.68a.981.981,0,0,1-.735-1.007A2.051,2.051,0,0,1,153.648,129.589Z"/>
            <path id="Path_54" data-name="Path 54" d="M143.622,133.614a.611.611,0,0,1,.647-.09.829.829,0,0,1,.363.928c-.1.2-.366.722-.787.63s-.73-.5-.623-.829A2.04,2.04,0,0,1,143.622,133.614Z"/>
            <path id="Path_55" data-name="Path 55" d="M143.219,127.65a.612.612,0,0,1,.648-.09.83.83,0,0,1,.362.928c-.1.2-.365.722-.787.63s-.73-.5-.623-.829A2.04,2.04,0,0,1,143.219,127.65Z"/>
            <path id="Path_56" data-name="Path 56" d="M150.349,133.993A.61.61,0,0,1,151,133.9a.83.83,0,0,1,.363.929c-.1.2-.366.722-.787.63s-.73-.5-.623-.83A2.03,2.03,0,0,1,150.349,133.993Z"/>
            <path id="Path_57" data-name="Path 57" d="M140.761,141.225a.609.609,0,0,1,.647-.09.83.83,0,0,1,.363.928c-.1.2-.366.722-.788.63s-.729-.5-.622-.829A2.04,2.04,0,0,1,140.761,141.225Z"/>
            <path id="Path_58" data-name="Path 58" d="M150.2,122.2a.611.611,0,0,1,.327-.566.83.83,0,0,1,.955.283c.1.205.346.732.014,1.008a.736.736,0,0,1-1.037-.017A2.049,2.049,0,0,1,150.2,122.2Z"/>
            <path id="Path_59" data-name="Path 59" d="M156.627,111.691a.611.611,0,0,1,.326-.566.83.83,0,0,1,.955.283c.1.206.346.732.014,1.009a.736.736,0,0,1-1.036-.018A2.026,2.026,0,0,1,156.627,111.691Z"/>
            <path id="Path_60" data-name="Path 60" d="M132.744,134.335a.333.333,0,0,1-.05-.387.612.612,0,0,1,.6-.278c.13.048.46.175.395.437a.543.543,0,0,1-.542.429A1.126,1.126,0,0,1,132.744,134.335Z"/>
            <path id="Path_61" data-name="Path 61" d="M148.232,134.627a.332.332,0,0,1-.049-.386.613.613,0,0,1,.6-.279c.13.048.46.176.395.437a.544.544,0,0,1-.542.43A1.129,1.129,0,0,1,148.232,134.627Z"/>
            <path id="Path_62" data-name="Path 62" d="M146.684,126.587a.332.332,0,0,1-.049-.386.612.612,0,0,1,.6-.279c.13.048.46.176.394.437a.543.543,0,0,1-.542.43A1.131,1.131,0,0,1,146.684,126.587Z"/>
            <path id="Path_63" data-name="Path 63" d="M129.639,139.676a.332.332,0,0,1-.049-.386.613.613,0,0,1,.6-.279c.13.048.46.176.394.437a.543.543,0,0,1-.541.43A1.129,1.129,0,0,1,129.639,139.676Z"/>
            <path id="Path_64" data-name="Path 64" d="M153.855,143.031a.464.464,0,0,1-.069-.539.859.859,0,0,1,.841-.389c.182.067.642.245.551.61a.76.76,0,0,1-.757.6A1.592,1.592,0,0,1,153.855,143.031Z"/>
            <path id="Path_65" data-name="Path 65" d="M132.315,139.045a.261.261,0,0,1-.039-.3.481.481,0,0,1,.473-.219c.1.038.361.138.31.343a.427.427,0,0,1-.426.337A.883.883,0,0,1,132.315,139.045Z"/>
            <path id="Path_66" data-name="Path 66" d="M136.31,138.473a.262.262,0,0,1-.038-.3.481.481,0,0,1,.472-.218c.1.038.361.138.31.343a.426.426,0,0,1-.425.337A.9.9,0,0,1,136.31,138.473Z"/>
            <path id="Path_67" data-name="Path 67" d="M148.736,136.338a.261.261,0,0,1-.039-.3.481.481,0,0,1,.473-.219c.1.038.361.138.309.343a.425.425,0,0,1-.425.337A.883.883,0,0,1,148.736,136.338Z"/>
            <path id="Path_68" data-name="Path 68" d="M134.339,122.537a.261.261,0,0,1-.039-.3.481.481,0,0,1,.473-.219c.1.038.361.138.31.343a.427.427,0,0,1-.426.337A.883.883,0,0,1,134.339,122.537Z"/>
            <path id="Path_69" data-name="Path 69" d="M139.086,123.9a.259.259,0,0,1-.038-.3.48.48,0,0,1,.472-.219c.1.038.361.138.31.343a.426.426,0,0,1-.425.337A.881.881,0,0,1,139.086,123.9Z"/>
            <path id="Path_70" data-name="Path 70" d="M151.964,126.537a.262.262,0,0,1-.039-.3.482.482,0,0,1,.473-.218c.1.038.361.138.309.343a.426.426,0,0,1-.425.337A.9.9,0,0,1,151.964,126.537Z"/>
            <path id="Path_71" data-name="Path 71" d="M157.34,115.739a.262.262,0,0,1-.039-.3.481.481,0,0,1,.472-.218c.1.038.361.138.31.343a.426.426,0,0,1-.425.337A.873.873,0,0,1,157.34,115.739Z"/>
            <path id="Path_72" data-name="Path 72" d="M153.207,118.874a.262.262,0,0,1-.039-.3.483.483,0,0,1,.473-.218c.1.038.361.138.31.343a.426.426,0,0,1-.426.337A.9.9,0,0,1,153.207,118.874Z"/>
            <path id="Path_73" data-name="Path 73" d="M153.205,117a.6.6,0,0,1-.444.249.4.4,0,0,1-.328-.495c.054-.163.2-.576.5-.64s.548.111.5.355A1.956,1.956,0,0,1,153.205,117Z"/>
            <path id="Path_74" data-name="Path 74" d="M152.338,109.618a.6.6,0,0,1-.444.248.4.4,0,0,1-.327-.495c.054-.162.2-.575.5-.639s.548.11.5.354A1.969,1.969,0,0,1,152.338,109.618Z"/>
            <path id="Path_75" data-name="Path 75" d="M154.907,113.771a.262.262,0,0,1-.039-.3.481.481,0,0,1,.472-.218c.1.038.361.138.31.343a.427.427,0,0,1-.425.337A.89.89,0,0,1,154.907,113.771Z"/>
            <path id="Path_76" data-name="Path 76" d="M151.755,123.855a.648.648,0,0,1-.15-.447c.038-.222.324-.236.452-.146s.452.324.467.6-.162.44-.358.332A2.059,2.059,0,0,1,151.755,123.855Z"/>
            <path id="Path_77" data-name="Path 77" d="M149.3,117.563a.646.646,0,0,1-.15-.446c.038-.223.324-.237.452-.147s.452.324.467.6-.162.439-.358.332A2.049,2.049,0,0,1,149.3,117.563Z"/>
            <path id="Path_78" data-name="Path 78" d="M147.181,114.1a.644.644,0,0,1-.15-.446c.039-.223.325-.236.452-.146s.452.323.467.6-.161.439-.358.332A2.049,2.049,0,0,1,147.181,114.1Z"/>
            <path id="Path_79" data-name="Path 79" d="M147.921,122.884a.261.261,0,0,1-.039-.3.481.481,0,0,1,.473-.219c.1.038.361.138.309.343a.425.425,0,0,1-.425.337A.883.883,0,0,1,147.921,122.884Z"/>
            <path id="Path_80" data-name="Path 80" d="M136.31,124.41a.262.262,0,0,1-.038-.3.481.481,0,0,1,.472-.218c.1.038.361.138.31.343a.426.426,0,0,1-.425.337A.9.9,0,0,1,136.31,124.41Z"/>
            <path id="Path_81" data-name="Path 81" d="M146.254,117.4a.263.263,0,0,1-.039-.3.482.482,0,0,1,.473-.218c.1.038.361.138.31.343a.428.428,0,0,1-.426.337A.9.9,0,0,1,146.254,117.4Z"/>
            <path id="Path_82" data-name="Path 82" d="M148.882,114.658a.259.259,0,0,1-.038-.3.482.482,0,0,1,.472-.219c.1.038.361.138.31.343a.428.428,0,0,1-.425.338A.893.893,0,0,1,148.882,114.658Z"/>
            <path id="Path_83" data-name="Path 83" d="M149.436,127.773a.262.262,0,0,1-.039-.3.481.481,0,0,1,.472-.218c.1.038.361.138.31.343a.426.426,0,0,1-.425.337A.89.89,0,0,1,149.436,127.773Z"/>
            <path id="Path_84" data-name="Path 84" d="M155.641,127.2a.261.261,0,0,1-.039-.3.48.48,0,0,1,.472-.219c.1.038.361.138.31.343a.426.426,0,0,1-.425.337A.872.872,0,0,1,155.641,127.2Z"/>
            <path id="Path_85" data-name="Path 85" d="M160.594,118.268a.261.261,0,0,1-.039-.3.484.484,0,0,1,.473-.219c.1.038.361.138.31.343a.427.427,0,0,1-.426.338A.9.9,0,0,1,160.594,118.268Z"/>
            <path id="Path_86" data-name="Path 86" d="M146.222,145.135a.261.261,0,0,1-.039-.3.483.483,0,0,1,.473-.219c.1.038.361.138.31.343a.427.427,0,0,1-.426.337A.883.883,0,0,1,146.222,145.135Z"/>
            <path id="Path_87" data-name="Path 87" d="M135.316,142.647a.261.261,0,0,1-.039-.3.484.484,0,0,1,.473-.219c.1.038.361.138.31.343a.427.427,0,0,1-.426.338A.9.9,0,0,1,135.316,142.647Z"/>
            <path id="Path_88" data-name="Path 88" d="M144.755,133.462a.261.261,0,0,1-.039-.3.481.481,0,0,1,.473-.219c.1.038.361.138.31.343a.427.427,0,0,1-.426.337A.883.883,0,0,1,144.755,133.462Z"/>
            <path id="Path_89" data-name="Path 89" d="M142.378,126.849a.261.261,0,0,1-.038-.3.48.48,0,0,1,.472-.219c.1.038.361.138.31.343a.426.426,0,0,1-.425.337A.881.881,0,0,1,142.378,126.849Z"/>
            <path id="Path_90" data-name="Path 90" d="M141.144,130.919a.261.261,0,0,1-.039-.3.483.483,0,0,1,.473-.219c.1.038.361.138.31.343a.428.428,0,0,1-.426.338A.9.9,0,0,1,141.144,130.919Z"/>
            <path id="Path_91" data-name="Path 91" d="M140.587,139.392a.261.261,0,0,1-.039-.3.482.482,0,0,1,.473-.219c.1.038.361.138.309.343a.425.425,0,0,1-.425.337A.883.883,0,0,1,140.587,139.392Z"/>
            <path id="Path_92" data-name="Path 92" d="M138.676,142.629a.261.261,0,0,1-.039-.3.482.482,0,0,1,.473-.219c.1.038.361.138.309.343a.425.425,0,0,1-.425.337A.883.883,0,0,1,138.676,142.629Z"/>
            <path id="Path_93" data-name="Path 93" d="M150.507,132.47a.418.418,0,0,1-.044.409.444.444,0,0,1-.572.04c-.1-.1-.349-.36-.236-.6a.393.393,0,0,1,.554-.216A1.38,1.38,0,0,1,150.507,132.47Z"/>
            <path id="Path_94" data-name="Path 94" d="M140.939,121.071a.415.415,0,0,1-.045.408.44.44,0,0,1-.571.04c-.1-.1-.349-.36-.236-.6a.394.394,0,0,1,.554-.217A1.378,1.378,0,0,1,140.939,121.071Z"/>
            <path id="Path_95" data-name="Path 95" d="M159.682,113.133a.657.657,0,0,1-.032.626.627.627,0,0,1-.836.087c-.154-.149-.543-.535-.4-.9a.559.559,0,0,1,.8-.356A2.159,2.159,0,0,1,159.682,113.133Z"/>
            <path id="Path_96" data-name="Path 96" d="M148.736,146.03a.261.261,0,0,1-.039-.3.484.484,0,0,1,.473-.219c.1.038.361.138.309.344a.426.426,0,0,1-.425.337A.9.9,0,0,1,148.736,146.03Z"/>
            <path id="Path_97" data-name="Path 97" d="M150.732,147.722a.261.261,0,0,1-.038-.3.481.481,0,0,1,.472-.218c.1.038.361.138.31.343a.427.427,0,0,1-.425.337A.9.9,0,0,1,150.732,147.722Z"/>
            <path id="Path_98" data-name="Path 98" d="M151.143,142.629a.261.261,0,0,1-.039-.3.483.483,0,0,1,.473-.219c.1.038.361.138.309.343a.425.425,0,0,1-.425.337A.883.883,0,0,1,151.143,142.629Z"/>
          </g>
          <circle id="Ellipse_1" data-name="Ellipse 1" cx="0.85" cy="0.85" r="0.85" transform="translate(154.927 114.461)"/>
        </g>
      </g>
    </g>
    <g id="Group_5" data-name="Group 5">
      <path id="Path_99" data-name="Path 99" d="M103.99,165.039a3.965,3.965,0,0,1,2.026,3.741c-.138,2.939-2.353,4.671-5.962,4.671-2.023,0-3.919-.521-4.742-1.37a5.431,5.431,0,0,1,.535-3.83h.2A3.921,3.921,0,0,0,100.3,172.5c1.962-.035,3.119-1.123,3.117-2.536,0-.915-.591-1.526-1.8-2.33l-3.931-2.609a4.223,4.223,0,0,1-2.159-4.048c.192-2.336,1.9-3.95,4.75-3.95a29.481,29.481,0,0,1,3.072.231h1.417l-.3,3.317h-.217c0-1.567-1.272-2.6-3.18-2.6-1.777,0-2.9.958-2.953,2.17-.055.888.627,1.483,1.572,2.1Z"/>
      <path id="Path_100" data-name="Path 100" d="M137.676,174.85c-.2,3.52-5.262,6.453-11.986,3.068-3.329-1.692-5.956-4.2-8.806-4.467-5.341-.045-8.741-3.184-8.741-8.212,0-5.07,3.458-8.212,8.876-8.212s8.862,3.142,8.862,8.212a7.59,7.59,0,0,1-5.742,7.81,43.532,43.532,0,0,1,6.95,2.3c4.07,1.557,7.956,1.444,10.46-.586ZM117.019,172.5c3.181,0,5.174-2.782,5.174-7.263s-1.993-7.263-5.174-7.263-5.189,2.782-5.189,7.263S113.839,172.5,117.019,172.5Z"/>
      <path id="Path_101" data-name="Path 101" d="M144.442,157.343v.225h-.368a1.151,1.151,0,0,0-1.191,1.066v8.784c0,3.708-2.433,6.033-6.492,6.033-4.832,0-7.353-2.311-7.353-5.993v-8.773a1.148,1.148,0,0,0-1.193-1.117h-.368v-.225h6.5v.225h-.368a1.147,1.147,0,0,0-1.19,1.084v8.611c0,3.209,1.681,5.2,4.38,5.2,2.756,0,4.474-1.883,4.481-4.913v-8.9a1.15,1.15,0,0,0-1.192-1.086h-.368v-.225Z"/>
      <path id="Path_102" data-name="Path 102" d="M152.627,173.135h-6.854l0-.225h.286a1.446,1.446,0,0,0,1.445-1.419V158.976a1.446,1.446,0,0,0-1.445-1.41h-.285l0-.225h6.853l0,.225h-.286a1.446,1.446,0,0,0-1.445,1.4v12.52a1.446,1.446,0,0,0,1.446,1.419h.285Z"/>
      <path id="Path_103" data-name="Path 103" d="M162.293,157.342c2.735,0,5.366,1.112,5.366,4.255a4.1,4.1,0,0,1-3.693,4.287,4.829,4.829,0,0,1,2.3,2c.069.109,1.422,2.255,2.272,3.315.973,1.239,1.616,1.693,2.792,1.711v.226h-2.2c-2.468,0-4.263-.534-5.3-2.339-.549-.956-1.566-3.19-1.88-3.864-.438-.942-.941-1.42-1.527-1.52V165.2h.689a2.83,2.83,0,0,0,2.849-2.608,4.693,4.693,0,0,0,.083-1.093c-.09-2.157-1.179-3.123-2.661-3.159-.6-.026-1.428,0-1.711-.007v13.161a1.445,1.445,0,0,0,1.449,1.418h.281l0,.226h-6.86l0-.226h.285a1.444,1.444,0,0,0,1.444-1.407V158.984a1.443,1.443,0,0,0-1.442-1.417h-.288l0-.224Z"/>
      <path id="Path_104" data-name="Path 104" d="M178.876,157.342c2.735,0,5.366,1.112,5.366,4.255a4.1,4.1,0,0,1-3.694,4.287,4.827,4.827,0,0,1,2.3,2c.069.109,1.422,2.255,2.272,3.315.973,1.239,1.616,1.693,2.792,1.711v.226h-2.2c-2.468,0-4.263-.534-5.3-2.339-.549-.956-1.566-3.19-1.88-3.864-.438-.942-.942-1.42-1.527-1.52V165.2h.689a2.829,2.829,0,0,0,2.848-2.608,4.631,4.631,0,0,0,.084-1.093c-.09-2.157-1.179-3.123-2.661-3.159-.6-.026-1.428,0-1.711-.007v13.161a1.445,1.445,0,0,0,1.449,1.418h.281l0,.226h-6.86l0-.226h.286a1.444,1.444,0,0,0,1.444-1.407V158.984a1.443,1.443,0,0,0-1.443-1.417h-.287l0-.224Z"/>
    </g>
    <g id="Group_7" data-name="Group 7">
      <g id="Group_6" data-name="Group 6">
        <path id="Path_105" data-name="Path 105" d="M141.363,176.024c-.073-.262-.2-.558-.553-.558a.43.43,0,0,0-.461.444c0,.287.193.427.533.592s.723.366.723.815a.845.845,0,0,1-.943.788,1.29,1.29,0,0,1-.419-.067,1.352,1.352,0,0,1-.207-.087,6.167,6.167,0,0,1-.114-.65l.125-.037c.07.26.274.687.7.687a.445.445,0,0,0,.483-.48c0-.3-.223-.436-.541-.6-.291-.146-.69-.349-.69-.8a.783.783,0,0,1,.874-.746,1.8,1.8,0,0,1,.542.1c.016.145.036.313.072.581Z"/>
        <path id="Path_106" data-name="Path 106" d="M145.855,178.041v-.118c.26-.036.3-.072.24-.237s-.133-.366-.223-.6h-.9c-.07.187-.126.346-.179.508-.09.249-.056.3.259.329v.118h-.921v-.118c.271-.042.329-.069.477-.433l.878-2.13.145-.037c.267.724.536,1.45.813,2.167.133.361.192.4.463.433v.118Zm-.41-2.156h-.009c-.134.337-.265.687-.391,1.016h.765Z"/>
        <path id="Path_107" data-name="Path 107" d="M151.508,177.382c-.028.139-.115.533-.157.659h-1.927v-.118c.358-.025.394-.053.394-.41v-1.6c0-.355-.028-.38-.374-.4v-.123h1.131v.123c-.329.022-.369.044-.369.4V177.5c0,.223.02.3.1.344a.923.923,0,0,0,.388.052.584.584,0,0,0,.464-.131,1.117,1.117,0,0,0,.226-.407Z"/>
        <path id="Path_108" data-name="Path 108" d="M155.484,175.323a1.357,1.357,0,0,1,1.4,1.355,1.39,1.39,0,0,1-1.455,1.427,1.364,1.364,0,0,1-1.411-1.366,1.4,1.4,0,0,1,1.463-1.416Zm-.092.154c-.469,0-.916.383-.916,1.156,0,.751.444,1.318,1.045,1.318.469,0,.9-.374.9-1.164,0-.858-.475-1.31-1.025-1.31Z"/>
        <path id="Path_109" data-name="Path 109" d="M162.391,175.508c-.232.011-.333.058-.352.245a6.564,6.564,0,0,0-.025.7v1.634h-.134l-1.835-2.129h-.005l0,1a6.449,6.449,0,0,0,.028.688c.019.212.114.262.4.284v.118h-1v-.118c.24-.016.346-.069.366-.273a5.476,5.476,0,0,0,.033-.7v-.876c0-.3-.014-.322-.089-.419a.457.457,0,0,0-.372-.148v-.123h.643l1.779,2.016h.011v-.952a6.56,6.56,0,0,0-.028-.682c-.019-.192-.117-.245-.416-.259v-.123h1Z"/>
        <path id="Path_110" data-name="Path 110" d="M171.217,176.41a.554.554,0,0,0-.494.3c-.111.154-.215.321-.36.534a4.188,4.188,0,0,1,.689.826l-.022.039a1.067,1.067,0,0,1-.544-.162c-.053-.056-.227-.243-.363-.385a1.1,1.1,0,0,1-.872.531.785.785,0,0,1-.838-.749c0-.374.257-.525.62-.776a.751.751,0,0,1-.3-.57.683.683,0,0,1,.7-.654.6.6,0,0,1,.634.57.443.443,0,0,1-.176.358,3.921,3.921,0,0,1-.338.243c.14.114.433.357.7.622a2.651,2.651,0,0,0,.248-.455c.075-.184.039-.237-.257-.276l0-.118h.966Zm-1.84,1.391a.86.86,0,0,0,.642-.35,7.312,7.312,0,0,0-.877-.784.667.667,0,0,0-.346.553.565.565,0,0,0,.578.581Zm.017-2.31a.36.36,0,0,0-.333.4c0,.212.126.352.383.542a.614.614,0,0,0,.3-.517.388.388,0,0,0-.341-.43Z"/>
        <path id="Path_111" data-name="Path 111" d="M178.5,176.024c-.072-.262-.2-.558-.552-.558a.43.43,0,0,0-.461.444c0,.287.193.427.533.592s.723.366.723.815a.845.845,0,0,1-.944.788,1.288,1.288,0,0,1-.418-.067,1.352,1.352,0,0,1-.207-.087,5.915,5.915,0,0,1-.114-.65l.125-.037c.07.26.274.687.7.687a.445.445,0,0,0,.483-.48c0-.3-.223-.436-.542-.6-.29-.146-.689-.349-.689-.8a.783.783,0,0,1,.874-.746,1.8,1.8,0,0,1,.542.1c.016.145.036.313.072.581Z"/>
        <path id="Path_112" data-name="Path 112" d="M182.394,175.385a1.19,1.19,0,0,1,.707.17.683.683,0,0,1,.274.581.841.841,0,0,1-.816.838,1.216,1.216,0,0,1-.2.005l-.312-.078v.623c0,.349.036.371.416.4v.118H181.3v-.118c.333-.028.369-.061.369-.4V175.91c0-.366-.036-.383-.346-.4v-.123Zm-.343,1.374a.936.936,0,0,0,.3.05.645.645,0,0,0-.025-1.287.385.385,0,0,0-.229.05c-.028.028-.044.073-.044.187Z"/>
        <path id="Path_113" data-name="Path 113" d="M187.253,178.041v-.118c.26-.036.3-.072.24-.237s-.134-.366-.223-.6h-.9c-.07.187-.126.346-.178.508-.09.249-.056.3.259.329v.118h-.922v-.118c.271-.042.33-.069.478-.433l.877-2.13.145-.037c.268.724.537,1.45.813,2.167.134.361.192.4.463.433v.118Zm-.411-2.156h-.008c-.134.337-.265.687-.391,1.016h.765Z"/>
      </g>
    </g>
  </g>
</svg>
